<?xml version="1.0" encoding="utf-8"?>
<svg width="21px" height="22px" viewBox="0 0 21 22" version="1.1" xmlns:xlink="http://www.w3.org/1999/xlink" xmlns="http://www.w3.org/2000/svg">
  <desc>Created with Lunacy</desc>
  <g id="Group">
    <path d="M9.86004 10.9048C10.8669 11.9105 12.1234 12.537 12.8654 12.8497L13.8372 11.879L20.766 16.499L17.7 19.5673C16.8997 20.3665 15.7727 20.7877 14.4357 20.7877C11.603 20.7877 7.9537 18.8977 4.91104 15.855C0.285204 11.2292 -1.3458 5.614 1.1987 3.06833L4.26704 0L8.88704 6.92767L7.9152 7.8995C8.2267 8.6415 8.8532 9.89917 9.86004 10.9048ZM16.048 17.9165L17.1039 16.8595L14.1347 14.8797L13.493 15.5213L12.8245 15.3195C12.716 15.288 10.1599 14.5005 8.21154 12.5533C6.2632 10.6062 5.47687 8.04883 5.4442 7.9415L5.24354 7.27417L5.8852 6.63017L3.90537 3.65983L2.8472 4.718C1.48337 6.08183 2.6722 10.3145 6.5607 14.203C9.14254 16.7837 12.233 18.452 14.4357 18.452C15.1497 18.452 15.6922 18.2723 16.048 17.9165Z" transform="translate(0 1.03833)" id="Shape" fill="#005798" fill-rule="evenodd" stroke="none" />
    <path d="M5.9745 6.99883L4.51967 5.54517C6.83783 5.81467 8.64967 7.76767 8.64967 10.157L10.983 10.157C10.983 6.45167 8.0885 3.4195 4.44267 3.18033L5.9745 1.64967L4.32483 0L0 4.32483L4.32483 8.64967L5.9745 6.99883L4.51967 5.54517C6.83783 5.81467 8.64967 7.76767 8.64967 10.157L10.983 10.157C10.983 6.45167 8.0885 3.4195 4.44267 3.18033L5.9745 1.64967L4.32483 0L0 4.32483L4.32483 8.64967L5.9745 6.99883Z" transform="translate(9.995361 0)" id="Shape" fill="#005798" stroke="none" />
  </g>
</svg>