<?xml version="1.0" encoding="utf-8"?>
<svg width="25px" height="25px" viewBox="0 0 25 25" version="1.1" xmlns:xlink="http://www.w3.org/1999/xlink" xmlns="http://www.w3.org/2000/svg">
  <desc>Created with Lunacy</desc>
  <g id="noun_1023591_cc">
    <path d="M20.6565 0.57731C20.6337 0.739809 20.6105 0.901308 20.5872 1.06331L24.9872 1.06331L24.9987 1.52631C25.0037 1.7463 25.0982 7.61603 22.1292 10.6595C21.0045 11.8133 19.5872 12.4908 17.9145 12.699C16.8227 13.9122 15.2972 14.7302 13.65 14.9992L13.65 21.907C16.4822 22.0437 18.6247 22.677 18.6247 23.4392C18.6247 24.3012 15.8822 24.9997 12.5 24.9997C9.11777 24.9997 6.37528 24.3012 6.37503 23.4395C6.37503 22.6772 8.51752 22.044 11.35 21.9072L11.35 14.9995C9.70251 14.7305 8.17702 13.9125 7.08553 12.6993C5.41278 12.491 3.99554 11.8133 2.87079 10.6598C-0.098192 7.61628 -0.00369246 1.7463 0.00130752 1.52656L0.0125575 1.06331L4.41254 1.06331C4.38929 0.901308 4.36629 0.739809 4.34304 0.57731C9.75401 -0.192437 15.2455 -0.192437 20.6565 0.57731ZM1.27505 2.01355C1.32555 3.31755 1.66455 7.74128 3.87004 9.99927C4.62504 10.7723 5.22278 10.901 6.27778 11.1835C5.90928 10.5443 5.64103 9.83902 5.51228 9.07377C5.19078 6.81403 4.86904 4.27329 4.54779 2.01355L1.27505 2.01355ZM18.7222 11.1835C19.7775 10.9013 20.375 10.7723 21.13 9.99927C23.3357 7.74128 23.6742 3.31755 23.7249 2.01355L20.4522 2.01355C20.131 4.27329 19.8095 6.81403 19.488 9.07377C19.359 9.83902 19.0905 10.5443 18.7222 11.1835ZM15.5005 11.6748L12.5 10.0973L9.49976 11.6748L10.0725 8.33377L7.64477 5.96704L10.9995 5.47954L12.5 2.43955L14.0007 5.47979L17.3555 5.96729L14.9277 8.33402L15.5005 11.6748Z" id="Shape" fill="#FFFFFF" fill-rule="evenodd" stroke="none" />
  </g>
</svg>