<?xml version="1.0" encoding="utf-8"?>
<svg width="325px" height="64px" viewBox="0 0 325 64" version="1.1" xmlns:xlink="http://www.w3.org/1999/xlink" xmlns="http://www.w3.org/2000/svg">
  <desc>Created with Lunacy</desc>
  <defs>
    <path d="M0 0L5.09342 0L5.09342 6.15574L0 6.15574L0 0L5.09342 0L5.09342 6.15574L0 6.15574L0 0Z" id="path_1" />
    <path d="M0 0L5.09288 0L5.09288 6.15574L0 6.15574L0 0L5.09288 0L5.09288 6.15574L0 6.15574L0 0Z" transform="translate(0.07325517 0.4058335)" id="path_2" />
    <path d="M0 0L5.09397 0L5.09397 6.15574L0 6.15574L0 0L5.09397 0L5.09397 6.15574L0 6.15574L0 0Z" transform="translate(0.1190926 0.4058335)" id="path_3" />
    <path d="M0 0L4.72391 0L4.72391 4.85557L0 4.85557L0 0L4.72391 0L4.72391 4.85557L0 4.85557L0 0Z" transform="translate(0.3645883 0.4059429)" id="path_4" />
    <clipPath id="mask_1">
      <use xlink:href="#path_1" />
    </clipPath>
    <clipPath id="mask_2">
      <use xlink:href="#path_2" />
    </clipPath>
    <clipPath id="mask_3">
      <use xlink:href="#path_3" />
    </clipPath>
    <clipPath id="mask_4">
      <use xlink:href="#path_4" />
    </clipPath>
  </defs>
  <g id="Page-1">
    <path d="M7.69781 33.9728L41.6679 0L75.642 33.9728L66.9427 42.6694L83.3438 42.6694L83.3438 45.36L0 45.36L0 42.6694L16.3944 42.6694L7.69781 33.9728ZM41.6679 8.03381L15.7303 33.9728L24.4269 42.6694L30.4041 42.6694L21.7061 33.9728L41.6679 13.9978L61.6416 33.9728L52.9449 42.6694L58.9102 42.6694L67.6069 33.9728L41.6679 8.03381Z" id="Fill-1" fill="#FFFFFF" fill-rule="evenodd" stroke="none" />
    <path d="M0 0L0 2.36775L22.0487 2.36775L22.0487 3.19725L10.395 4.96125L10.4488 7.31194L23.8507 8.65856L23.8507 9.55106L17.2174 10.8938L17.22 13.2182L26.0177 14.9638L26.0256 11.5224L34.9296 9.72169L34.8219 7.3815L20.0301 5.89575L43.4096 2.35594L43.2456 0L0 0L0 2.36775L22.0487 2.36775L22.0487 3.19725L10.395 4.96125L10.4488 7.31194L23.8507 8.65856L23.8507 9.55106L17.2174 10.8938L17.22 13.2182L26.0177 14.9638L26.0256 11.5224L34.9296 9.72169L34.8219 7.3815L20.0301 5.89575L43.4096 2.35594L43.2456 0L0 0Z" transform="translate(20.04871 48.06625)" id="Fill-2" fill="#FFFFFF" stroke="none" />
  </g>
  <g id="Page-1" transform="translate(102.0005 20.0004)">
    <path d="M0 0.143261L0.130138 0.0535862C0.131232 0.0393695 0.142167 0.0164039 0.138887 0L0 0.143261L0.130138 0.0535862C0.131232 0.0393695 0.142167 0.0164039 0.138887 0L0 0.143261Z" transform="translate(216.8799 4.883667)" id="Fill-1" fill="#FFFFFF" stroke="none" />
    <path d="M4.36454 3.14081C4.36454 3.03473 4.35361 3.01614 4.32299 2.97677L2.38076 0.0481182C2.34795 0.00984236 2.31514 0 2.2714 0L0 0L2.1511 3.14081L0.00218719 6.27833L2.22109 6.28271C2.26484 6.28271 2.29874 6.27177 2.3403 6.22037L4.31314 3.30047C4.35361 3.24907 4.36454 3.22939 4.36454 3.14081L4.36454 3.14081C4.36454 3.03473 4.35361 3.01614 4.32299 2.97677L2.38076 0.0481182C2.34795 0.00984236 2.31514 0 2.2714 0L0 0L2.1511 3.14081L0.00218719 6.27833L2.22109 6.28271C2.26484 6.28271 2.29874 6.27177 2.3403 6.22037L4.31314 3.30047C4.35361 3.24907 4.36454 3.22939 4.36454 3.14081" transform="translate(217.0575 4.950058)" id="Fill-3" fill="#FFFFFF" stroke="none" />
    <path d="M4.36345 3.14081C4.36345 3.03473 4.35361 3.01614 4.32189 2.97677L2.38076 0.0481182C2.34904 0.00984236 2.31514 0 2.2714 0L0 0L2.1522 3.14081L0.00328079 6.27833L2.22109 6.28271C2.26374 6.28271 2.29874 6.27177 2.34139 6.21928L4.31314 3.30047C4.35361 3.24907 4.36345 3.22939 4.36345 3.14081L4.36345 3.14081C4.36345 3.03473 4.35361 3.01614 4.32189 2.97677L2.38076 0.0481182C2.34904 0.00984236 2.31514 0 2.2714 0L0 0L2.1522 3.14081L0.00328079 6.27833L2.22109 6.28271C2.26374 6.28271 2.29874 6.27177 2.34139 6.21928L4.31314 3.30047C4.35361 3.24907 4.36345 3.22939 4.36345 3.14081" transform="translate(212.6766 4.950058)" id="Fill-5" fill="#FFFFFF" stroke="none" />
    <path d="M0 0.143261L0.129044 0.0535862C0.131232 0.0393695 0.141074 0.0164039 0.138887 0L0 0.143261L0.129044 0.0535862C0.131232 0.0393695 0.141074 0.0164039 0.138887 0L0 0.143261Z" transform="translate(212.5001 4.883667)" id="Fill-7" fill="#FFFFFF" stroke="none" />
    <path d="M0.0262463 0L0 11.4029L2.29108 11.4292L2.31952 1.98597L7.65627 1.98597C7.67704 1.98597 7.65627 0.00984237 7.65627 0.00984237L0.0262463 0L0 11.4029L2.29108 11.4292L2.31952 1.98597L7.65627 1.98597C7.67704 1.98597 7.65627 0.00984237 7.65627 0.00984237L0.0262463 0Z" transform="translate(0.1241455 0.5692139)" id="Fill-9" fill="#FFFFFF" stroke="none" />
    <path d="M5.68998 8.79907L7.04057 11.3811C7.05698 11.4171 7.07229 11.4292 7.12259 11.4292L9.58537 11.4292L7.67158 7.82687C7.1718 6.84591 6.50799 6.19632 5.57843 5.77856C5.46361 5.72935 5.21973 5.62546 5.22192 5.50626C5.22411 5.38705 5.47126 5.27551 5.58718 5.23067C6.47518 4.88509 7.08541 4.30767 7.56878 3.35515L7.56987 3.35406L9.31962 0.00437438L6.92246 0C6.87216 0 6.85685 0.0142167 6.84154 0.0448374L5.57515 2.48028C4.88619 3.78384 3.86477 4.56358 2.84226 4.56358L2.31842 4.56358L2.31842 0.0273399L0.0262463 0L0 11.4029L2.29218 11.4292L2.31842 6.53314L2.85866 6.53314C3.87898 6.53314 4.93759 7.37959 5.68998 8.79907L5.68998 8.79907L7.04057 11.3811C7.05698 11.4171 7.07229 11.4292 7.12259 11.4292L9.58537 11.4292L7.67158 7.82687C7.1718 6.84591 6.50799 6.19632 5.57843 5.77856C5.46361 5.72935 5.21973 5.62546 5.22192 5.50626C5.22411 5.38705 5.47126 5.27551 5.58718 5.23067C6.47518 4.88509 7.08541 4.30767 7.56878 3.35515L7.56987 3.35406L9.31962 0.00437438L6.92246 0C6.87216 0 6.85685 0.0142167 6.84154 0.0448374L5.57515 2.48028C4.88619 3.78384 3.86477 4.56358 2.84226 4.56358L2.31842 4.56358L2.31842 0.0273399L0.0262463 0L0 11.4029L2.29218 11.4292L2.31842 6.53314L2.85866 6.53314C3.87898 6.53314 4.93759 7.37959 5.68998 8.79907" transform="translate(10.28491 0.5691071)" id="Fill-11" fill="#FFFFFF" stroke="none" />
    <path d="M0 3.1244C0 3.23048 0.00984236 3.24907 0.0415566 3.28844L2.03299 6.2324C2.05596 6.26849 2.07236 6.28271 2.14235 6.28271L4.36345 6.28271L2.21234 3.1419L4.36126 0.00328079L2.09205 0C2.0494 0 2.0155 0.00984236 1.97394 0.0612414L0.051399 2.96365C0.00984236 3.01614 0 3.03582 0 3.1244L0 3.1244C0 3.23048 0.00984236 3.24907 0.0415566 3.28844L2.03299 6.2324C2.05596 6.26849 2.07236 6.28271 2.14235 6.28271L4.36345 6.28271L2.21234 3.1419L4.36126 0.00328079L2.09205 0C2.0494 0 2.0155 0.00984236 1.97394 0.0612414L0.051399 2.96365C0.00984236 3.01614 0 3.03582 0 3.1244" transform="translate(28.43427 4.00322)" id="Fill-13" fill="#FFFFFF" stroke="none" />
    <path d="M0.137807 0L0.00876312 0.0885813C0.00657593 0.102798 -0.00326644 0.126857 0.00110795 0.143261L0.137807 0L0.00876312 0.0885813C0.00657593 0.102798 -0.00326644 0.126857 0.00110795 0.143261L0.137807 0Z" transform="translate(32.83643 10.20872)" id="Fill-15" fill="#FFFFFF" stroke="none" />
    <path d="M0.138456 0L0.00941209 0.0885813C0.0072249 0.103892 -0.00261747 0.126857 0.000663319 0.143261L0.138456 0L0.00941209 0.0885813C0.0072249 0.103892 -0.00261747 0.126857 0.000663319 0.143261L0.138456 0Z" transform="translate(28.45544 10.20872)" id="Fill-17" fill="#FFFFFF" stroke="none" />
    <path d="M0 3.1244C0 3.23048 0.00984236 3.24907 0.0415566 3.28844L2.03299 6.2324C2.05596 6.26849 2.07346 6.28271 2.14126 6.28271L4.36345 6.28271L2.21234 3.1419L4.36126 0.00328079L2.09205 0C2.0494 0 2.0155 0.00984236 1.97394 0.0612414L0.051399 2.96365C0.00984236 3.01614 0 3.03582 0 3.1244L0 3.1244C0 3.23048 0.00984236 3.24907 0.0415566 3.28844L2.03299 6.2324C2.05596 6.26849 2.07346 6.28271 2.14126 6.28271L4.36345 6.28271L2.21234 3.1419L4.36126 0.00328079L2.09205 0C2.0494 0 2.0155 0.00984236 1.97394 0.0612414L0.051399 2.96365C0.00984236 3.01614 0 3.03582 0 3.1244" transform="translate(24.05408 4.00322)" id="Fill-19" fill="#FFFFFF" stroke="none" />
    <path d="M10.083 1.6568C9.53835 1.13078 8.90187 0.719586 8.19322 0.436345C7.45176 0.143261 6.695 0 5.88136 0C5.06663 0 4.30986 0.143261 3.5695 0.436345C2.83788 0.718493 2.21672 1.11219 1.67211 1.64258C1.14828 2.15438 0.734897 2.77773 0.442906 3.49623C0.148729 4.20597 0 4.97149 0 5.77528C0 6.57361 0.148729 7.33584 0.441813 8.04231C0.732709 8.75752 1.14609 9.38196 1.6732 9.90032C2.21125 10.4253 2.83241 10.8222 3.5695 11.1153C4.31642 11.4018 5.0721 11.5418 5.88136 11.5418C6.695 11.5418 7.45176 11.3996 8.19432 11.1066C8.90406 10.8233 9.53944 10.411 10.084 9.88173C10.7129 9.26823 11.1678 8.51365 11.4357 7.63986L11.4456 7.61033L9.08997 7.62346C8.94999 7.90561 8.78158 8.15932 8.57161 8.39882C8.25337 8.76955 7.84874 9.06263 7.36974 9.26823C6.41394 9.66848 5.33237 9.6652 4.40063 9.26057C3.92601 9.05169 3.52247 8.75752 3.20205 8.38788C2.60495 7.70438 2.30202 6.82513 2.30202 5.77528C2.30202 4.71996 2.60604 3.83634 3.20752 3.15065C3.52794 2.77883 3.93038 2.48684 4.40063 2.28234C5.328 1.87552 6.40957 1.87224 7.36756 2.27249C7.84874 2.47918 8.25446 2.77336 8.57379 3.14628C8.78814 3.39124 8.95874 3.64714 9.09325 3.9282L9.09981 3.94132L11.4456 3.94132L11.4357 3.91289C11.1678 3.03035 10.7118 2.2714 10.083 1.6568L10.083 1.6568C9.53835 1.13078 8.90187 0.719586 8.19322 0.436345C7.45176 0.143261 6.695 0 5.88136 0C5.06663 0 4.30986 0.143261 3.5695 0.436345C2.83788 0.718493 2.21672 1.11219 1.67211 1.64258C1.14828 2.15438 0.734897 2.77773 0.442906 3.49623C0.148729 4.20597 0 4.97149 0 5.77528C0 6.57361 0.148729 7.33584 0.441813 8.04231C0.732709 8.75752 1.14609 9.38196 1.6732 9.90032C2.21125 10.4253 2.83241 10.8222 3.5695 11.1153C4.31642 11.4018 5.0721 11.5418 5.88136 11.5418C6.695 11.5418 7.45176 11.3996 8.19432 11.1066C8.90406 10.8233 9.53944 10.411 10.084 9.88173C10.7129 9.26823 11.1678 8.51365 11.4357 7.63986L11.4456 7.61033L9.08997 7.62346C8.94999 7.90561 8.78158 8.15932 8.57161 8.39882C8.25337 8.76955 7.84874 9.06263 7.36974 9.26823C6.41394 9.66848 5.33237 9.6652 4.40063 9.26057C3.92601 9.05169 3.52247 8.75752 3.20205 8.38788C2.60495 7.70438 2.30202 6.82513 2.30202 5.77528C2.30202 4.71996 2.60604 3.83634 3.20752 3.15065C3.52794 2.77883 3.93038 2.48684 4.40063 2.28234C5.328 1.87552 6.40957 1.87224 7.36756 2.27249C7.84874 2.47918 8.25446 2.77336 8.57379 3.14628C8.78814 3.39124 8.95874 3.64714 9.09325 3.9282L9.09981 3.94132L11.4456 3.94132L11.4357 3.91289C11.1678 3.03035 10.7118 2.2714 10.083 1.6568" transform="translate(35.3363 0.5720673)" id="Fill-21" fill="#FFFFFF" stroke="none" />
    <path d="M11.4368 7.63877L11.4456 7.61034L9.09106 7.62127C8.94999 7.9067 8.77939 8.16151 8.56942 8.39772C8.24899 8.77064 7.84546 9.06372 7.36974 9.26713C6.41066 9.66739 5.33019 9.6652 4.40063 9.25838C3.9282 9.05279 3.52575 8.75861 3.20314 8.38788C2.99973 8.15385 2.82913 7.89576 2.6979 7.62018C2.43544 7.0876 2.30202 6.46643 2.30202 5.77309C2.30202 5.07866 2.43544 4.4575 2.69681 3.92492C2.82585 3.65152 2.99755 3.38905 3.20314 3.15065C3.53122 2.77555 3.93367 2.48246 4.40063 2.28233C5.328 1.87442 6.40847 1.87114 7.36428 2.27249C7.84108 2.47481 8.2479 2.76899 8.57379 3.14518C8.78267 3.38359 8.95327 3.63949 9.09325 3.9271L9.09981 3.94023L11.4456 3.94023L11.4368 3.91179C11.1678 3.03145 10.7118 2.27359 10.0808 1.6557C9.53616 1.12968 8.89968 0.718493 8.19103 0.435251C7.44958 0.143261 6.6939 0 5.88136 0C5.06663 0 4.31096 0.143261 3.5695 0.435251C2.83679 0.716305 2.21453 1.11109 1.66883 1.64258C1.14281 2.15985 0.729429 2.7843 0.442906 3.49513C0.384946 3.63402 0.333547 3.77291 0.290897 3.90961C0.0984236 4.49249 0 5.11912 0 5.77309C0 6.43144 0.0984236 7.05916 0.293084 7.63767C0.344483 7.79843 0.391507 7.92529 0.440719 8.03793C0.727241 8.75096 1.14062 9.37649 1.67101 9.89923C2.21234 10.4242 2.83351 10.8211 3.5695 11.1153C4.31642 11.4007 5.07319 11.5407 5.88136 11.5407C6.6939 11.5407 7.44958 11.3986 8.19213 11.1055C8.90187 10.8211 9.53725 10.4099 10.0808 9.88173C10.7074 9.2726 11.1634 8.51802 11.4368 7.63877L11.4368 7.63877L11.4456 7.61034L9.09106 7.62127C8.94999 7.9067 8.77939 8.16151 8.56942 8.39772C8.24899 8.77064 7.84546 9.06372 7.36974 9.26713C6.41066 9.66739 5.33019 9.6652 4.40063 9.25838C3.9282 9.05279 3.52575 8.75861 3.20314 8.38788C2.99973 8.15385 2.82913 7.89576 2.6979 7.62018C2.43544 7.0876 2.30202 6.46643 2.30202 5.77309C2.30202 5.07866 2.43544 4.4575 2.69681 3.92492C2.82585 3.65152 2.99755 3.38905 3.20314 3.15065C3.53122 2.77555 3.93367 2.48246 4.40063 2.28233C5.328 1.87442 6.40847 1.87114 7.36428 2.27249C7.84108 2.47481 8.2479 2.76899 8.57379 3.14518C8.78267 3.38359 8.95327 3.63949 9.09325 3.9271L9.09981 3.94023L11.4456 3.94023L11.4368 3.91179C11.1678 3.03145 10.7118 2.27359 10.0808 1.6557C9.53616 1.12968 8.89968 0.718493 8.19103 0.435251C7.44958 0.143261 6.6939 0 5.88136 0C5.06663 0 4.31096 0.143261 3.5695 0.435251C2.83679 0.716305 2.21453 1.11109 1.66883 1.64258C1.14281 2.15985 0.729429 2.7843 0.442906 3.49513C0.384946 3.63402 0.333547 3.77291 0.290897 3.90961C0.0984236 4.49249 0 5.11912 0 5.77309C0 6.43144 0.0984236 7.05916 0.293084 7.63767C0.344483 7.79843 0.391507 7.92529 0.440719 8.03793C0.727241 8.75096 1.14062 9.37649 1.67101 9.89923C2.21234 10.4242 2.83351 10.8211 3.5695 11.1153C4.31642 11.4007 5.07319 11.5407 5.88136 11.5407C6.6939 11.5407 7.44958 11.3986 8.19213 11.1055C8.90187 10.8211 9.53725 10.4099 10.0808 9.88173C10.7074 9.2726 11.1634 8.51802 11.4368 7.63877" transform="translate(86.18457 0.5739136)" id="Fill-23" fill="#FFFFFF" stroke="none" />
    <path d="M10.5379 11.5232L10.5379 0L9.48585 0L2.21344 7.66064L2.21344 0L0 0L0 11.5232L1.05204 11.5232L8.33211 3.86258L8.33211 11.5232L10.5379 11.5232L10.5379 0L9.48585 0L2.21344 7.66064L2.21344 0L0 0L0 11.5232L1.05204 11.5232L8.33211 3.86258L8.33211 11.5232L10.5379 11.5232Z" transform="translate(144.8475 0.5907593)" id="Fill-25" fill="#FFFFFF" stroke="none" />
    <path d="M8.3157 9.58318L8.3157 0.00874877L6.17663 0L6.17663 3.3639L2.13251 3.3639L2.13251 0.00765517L0 0.00765517L0 9.58318L2.13251 9.58318L2.13251 5.35425L6.17663 5.35425L6.17663 9.58318L8.3157 9.58318L8.3157 0.00874877L6.17663 0L6.17663 3.3639L2.13251 3.3639L2.13251 0.00765517L0 0.00765517L0 9.58318L2.13251 9.58318L2.13251 5.35425L6.17663 5.35425L6.17663 9.58318L8.3157 9.58318Z" transform="translate(49.7301 2.605499)" id="Fill-27" fill="#FFFFFF" stroke="none" />
    <path d="M9.75816 4.78776C9.75816 5.45158 9.63458 6.08477 9.38962 6.67203C9.15012 7.26585 8.80454 7.78422 8.36054 8.21509C7.91873 8.64925 7.40583 8.97952 6.79451 9.2212C6.17554 9.45961 5.54891 9.57553 4.87963 9.57553C4.21472 9.57553 3.5695 9.45742 2.96255 9.22339C2.35342 8.97952 1.83943 8.64925 1.39105 8.21509C0.950335 7.77984 0.605852 7.26038 0.366355 6.66656C0.123576 6.08367 0 5.45158 0 4.78776C0 4.12504 0.123576 3.49076 0.368542 2.9024C0.606946 2.31296 0.950335 1.79568 1.38777 1.36371C1.83615 0.929557 2.36435 0.590542 2.96036 0.3587C3.56403 0.121389 4.20925 0 4.87963 0C5.55437 0 6.18101 0.118108 6.79451 0.360887C7.3938 0.590542 7.92092 0.928463 8.36273 1.36153L8.36273 1.36262C8.80454 1.79131 9.15121 2.30967 9.3929 2.90787C9.63567 3.49295 9.75816 4.12614 9.75816 4.78776ZM5.99291 7.40036C6.34176 7.2407 6.63703 7.02307 6.87216 6.75077C7.31506 6.23787 7.53925 5.57734 7.53925 4.78776C7.53925 3.99709 7.31506 3.33766 6.87216 2.82476C6.63485 2.54917 6.3363 2.33155 5.98525 2.17844C5.30503 1.88208 4.45312 1.88208 3.77291 2.17844C3.42186 2.33155 3.12331 2.54808 2.88709 2.82257C2.43216 3.34094 2.21125 3.98397 2.21125 4.78776C2.21125 5.59046 2.43106 6.2324 2.88491 6.74858C3.12112 7.02307 3.42186 7.24398 3.78166 7.40693C4.12723 7.55128 4.50015 7.62455 4.87525 7.62455C5.25473 7.62455 5.63639 7.54909 5.99291 7.40036Z" transform="translate(61.22955 2.613144)" id="Fill-29" fill="#FFFFFF" fill-rule="evenodd" stroke="none" />
    <path d="M8.36164 1.37465C7.90889 0.937212 7.38177 0.59601 6.79233 0.360887C6.17882 0.119202 5.55219 0 4.87853 0C4.20488 0 3.57934 0.118108 2.96693 0.359793C2.35998 0.593823 1.8438 0.922995 1.38887 1.36481C0.951429 1.79568 0.608039 2.31296 0.369635 2.90459C0.31933 3.02379 0.277773 3.13862 0.242778 3.24798C0.0809261 3.73572 0 4.25628 0 4.79433C0 5.33566 0.0809261 5.85402 0.241685 6.33301C0.273399 6.43581 0.311675 6.54408 0.365261 6.67531C0.606946 7.27023 0.951429 7.78968 1.39105 8.22166C1.83833 8.65581 2.35451 8.98717 2.96802 9.23214C3.58809 9.46836 4.21363 9.58428 4.87853 9.58428C5.55328 9.58428 6.17882 9.46507 6.79342 9.2223C7.38177 8.98827 7.90998 8.64488 8.36164 8.20634C8.88547 7.69892 9.26495 7.0701 9.49241 6.33739L9.57443 6.07274L7.33037 6.07274L7.2746 6.18538C7.16962 6.39863 7.04167 6.58892 6.88309 6.76717C6.65016 7.04057 6.35051 7.2571 5.99728 7.40911C5.27879 7.70876 4.46843 7.70766 3.774 7.40474C3.42077 7.24945 3.12331 7.03182 2.886 6.75624C2.73399 6.58235 2.60932 6.39644 2.50762 6.18647C2.31186 5.79059 2.21344 5.32144 2.21344 4.79433C2.21344 4.2694 2.31186 3.80134 2.50652 3.40108C2.60167 3.19877 2.73071 3.0052 2.886 2.82476C3.12768 2.54699 3.42624 2.33045 3.77291 2.17954C4.46515 1.87552 5.27332 1.87333 5.99072 2.17188C6.34833 2.32717 6.65016 2.5448 6.88856 2.82257C7.04276 2.99755 7.17071 3.18783 7.27569 3.40327L7.33256 3.51919L9.57443 3.51919L9.49351 3.25454C9.26932 2.52183 8.88875 1.88973 8.36164 1.37465L8.36164 1.37465C7.90889 0.937212 7.38177 0.59601 6.79233 0.360887C6.17882 0.119202 5.55219 0 4.87853 0C4.20488 0 3.57934 0.118108 2.96693 0.359793C2.35998 0.593823 1.8438 0.922995 1.38887 1.36481C0.951429 1.79568 0.608039 2.31296 0.369635 2.90459C0.31933 3.02379 0.277773 3.13862 0.242778 3.24798C0.0809261 3.73572 0 4.25628 0 4.79433C0 5.33566 0.0809261 5.85402 0.241685 6.33301C0.273399 6.43581 0.311675 6.54408 0.365261 6.67531C0.606946 7.27023 0.951429 7.78968 1.39105 8.22166C1.83833 8.65581 2.35451 8.98717 2.96802 9.23214C3.58809 9.46836 4.21363 9.58428 4.87853 9.58428C5.55328 9.58428 6.17882 9.46507 6.79342 9.2223C7.38177 8.98827 7.90998 8.64488 8.36164 8.20634C8.88547 7.69892 9.26495 7.0701 9.49241 6.33739L9.57443 6.07274L7.33037 6.07274L7.2746 6.18538C7.16962 6.39863 7.04167 6.58892 6.88309 6.76717C6.65016 7.04057 6.35051 7.2571 5.99728 7.40911C5.27879 7.70876 4.46843 7.70766 3.774 7.40474C3.42077 7.24945 3.12331 7.03182 2.886 6.75624C2.73399 6.58235 2.60932 6.39644 2.50762 6.18647C2.31186 5.79059 2.21344 5.32144 2.21344 4.79433C2.21344 4.2694 2.31186 3.80134 2.50652 3.40108C2.60167 3.19877 2.73071 3.0052 2.886 2.82476C3.12768 2.54699 3.42624 2.33045 3.77291 2.17954C4.46515 1.87552 5.27332 1.87333 5.99072 2.17188C6.34833 2.32717 6.65016 2.5448 6.88856 2.82257C7.04276 2.99755 7.17071 3.18783 7.27569 3.40327L7.33256 3.51919L9.57443 3.51919L9.49351 3.25454C9.26932 2.52183 8.88875 1.88973 8.36164 1.37465" transform="translate(73.54895 2.605713)" id="Fill-31" fill="#FFFFFF" stroke="none" />
    <path d="M8.13417 0L0 0L0 1.94113L3.01833 1.94113L3.01833 9.36446L5.10819 9.36446L5.10819 1.94113L8.13417 1.94113L8.13417 0L0 0L0 1.94113L3.01833 1.94113L3.01833 9.36446L5.10819 9.36446L5.10819 1.94113L8.13417 1.94113L8.13417 0Z" transform="translate(99.4491 2.823669)" id="Fill-33" fill="#FFFFFF" stroke="none" />
    <path d="M7.17836 4.44766C6.93449 4.7987 6.60969 5.06991 6.18429 5.27879C5.70201 5.51391 5.23504 5.62655 4.75496 5.62655L2.0833 5.62655L2.0833 9.35134L0 9.35134L0 0L4.75496 0C5.23723 0 5.70638 0.114828 6.19085 0.354325C7.15759 0.828946 7.62674 1.6393 7.62674 2.83351C7.62674 3.46779 7.47692 4.01131 7.17836 4.44766ZM5.06116 2.05924C4.87306 1.97613 4.68825 1.93457 4.51327 1.93457L2.0833 1.93457L2.0833 3.73026L4.51874 3.73026C4.70028 3.73026 4.88072 3.69198 5.0546 3.61652C5.21208 3.54981 5.33566 3.46014 5.42096 3.35187C5.52813 3.21627 5.58281 3.04129 5.58281 2.83351C5.58281 2.4584 5.41111 2.20469 5.06116 2.05924Z" transform="translate(110.3507 2.836685)" id="Fill-35" fill="#FFFFFF" fill-rule="evenodd" stroke="none" />
    <path d="M6.64141 0.352138C7.22758 0.577419 7.74375 0.906591 8.17354 1.332L8.17463 1.332C8.6066 1.74975 8.94452 2.25828 9.18074 2.84116C9.41805 3.41202 9.53834 4.02881 9.53834 4.6784C9.53834 5.32691 9.41805 5.94479 9.17855 6.52002C8.94343 7.10072 8.6066 7.60815 8.17244 8.02809C7.74157 8.4524 7.2407 8.77501 6.64141 9.01123C6.03665 9.24417 5.42314 9.35681 4.77027 9.35681C4.12067 9.35681 3.49076 9.24198 2.89694 9.01451C2.30093 8.77501 1.79787 8.4524 1.36153 8.02809C0.93065 7.60487 0.593823 7.09634 0.358699 6.51565C0.121389 5.94479 0 5.32691 0 4.6784C0 4.03099 0.121389 3.41202 0.360887 2.83788C0.593823 2.25937 0.929557 1.75303 1.35825 1.33309C1.79568 0.907685 2.31296 0.577419 2.89475 0.351044C3.4831 0.117015 4.11411 0 4.77027 0C5.4297 0 6.04212 0.114828 6.64141 0.352138ZM5.85949 7.23304C6.20069 7.07775 6.49049 6.8645 6.71905 6.59876C7.15212 6.0968 7.37193 5.45048 7.37193 4.6784C7.37193 3.90633 7.15212 3.26001 6.71905 2.75914C6.48721 2.48902 6.19522 2.27687 5.85183 2.12704C5.18693 1.83724 4.35142 1.83724 3.68761 2.12704C3.34422 2.27687 3.05223 2.48902 2.82257 2.75696C2.37638 3.26438 2.16095 3.8932 2.16095 4.6784C2.16095 5.45376 2.38185 6.09899 2.81929 6.59657C3.05004 6.86341 3.34312 7.07994 3.69526 7.2407C4.03537 7.38177 4.39954 7.45286 4.76589 7.45286C5.13771 7.45286 5.51063 7.37959 5.85949 7.23304Z" transform="translate(119.9253 2.830338)" id="Fill-37" fill="#FFFFFF" fill-rule="evenodd" stroke="none" />
    <path d="M2.1686 0L0 2.28452L1.4009 3.62308L3.57059 1.33856L2.1686 0L0 2.28452L1.4009 3.62308L3.57059 1.33856L2.1686 0Z" transform="translate(135.5324 0)" id="Fill-39" fill="#FFFFFF" stroke="none" />
    <path d="M7.49551 0L2.08767 5.69654L2.08767 0L0 0L0 9.35025L1.07938 9.35025L6.49487 3.6537L6.49487 9.35025L8.57598 9.35025L8.57598 0L7.49551 0L2.08767 5.69654L2.08767 0L0 0L0 9.35025L1.07938 9.35025L6.49487 3.6537L6.49487 9.35025L8.57598 9.35025L8.57598 0L7.49551 0Z" transform="translate(132.4761 2.837555)" id="Fill-41" fill="#FFFFFF" stroke="none" />
    <path d="M8.12214 9.35243L8.12214 0.231842L6.03337 0.239498L6.03337 3.27969L2.08221 3.27969L2.08221 0L0 0L0 9.35243L2.08221 9.35243L2.08221 5.22083L6.03337 5.22083L6.03337 9.35243L8.12214 9.35243L8.12214 0.231842L6.03337 0.239498L6.03337 3.27969L2.08221 3.27969L2.08221 0L0 0L0 9.35243L2.08221 9.35243L2.08221 5.22083L6.03337 5.22083L6.03337 9.35243L8.12214 9.35243Z" transform="translate(158.8678 2.836243)" id="Fill-43" fill="#FFFFFF" stroke="none" />
    <path d="M7.62018 6.51455C7.62018 7.70657 7.15102 8.51802 6.18429 8.99045C5.70092 9.22886 5.23176 9.34587 4.75167 9.34587L0 9.34587L0 0L3.8932 0C4.37657 0 4.84244 0.115921 5.32253 0.355419C6.28818 0.827852 6.75624 1.63821 6.75624 2.83132C6.75624 3.143 6.69609 3.4328 6.56923 3.71713C6.50143 3.87242 6.41503 4.02662 6.30896 4.17644L6.2335 4.2858L6.34504 4.35689C6.68187 4.56686 6.94433 4.80198 7.14884 5.0721C7.46707 5.4986 7.62018 5.97103 7.62018 6.51455ZM3.77837 1.93457C3.96538 1.93457 4.14582 1.97285 4.31752 2.05049C4.66856 2.2025 4.84026 2.4584 4.84026 2.83132C4.84026 3.14518 4.72871 3.36609 4.48593 3.52466C4.40282 3.58043 4.29565 3.62965 4.17207 3.66901C4.09005 3.69635 4.00147 3.71495 3.92929 3.72041L2.08111 3.72151L2.08111 1.93457L3.77837 1.93457ZM4.51546 5.61671C4.69481 5.61671 4.87634 5.65608 5.05679 5.73372C5.40674 5.88027 5.57843 6.13507 5.57843 6.51455C5.57843 6.88637 5.40565 7.14228 5.05241 7.29647C4.87634 7.37193 4.69371 7.41021 4.5089 7.41021L2.08111 7.41021L2.08111 5.61671L4.51546 5.61671Z" transform="translate(170.4077 2.843353)" id="Fill-45" fill="#FFFFFF" fill-rule="evenodd" stroke="none" />
    <path d="M6.62938 1.93566L6.62938 0L0 0L0 9.35243L6.62938 9.35243L6.62938 7.41786L2.08877 7.41786L2.08877 5.21427L5.47017 5.21427L5.47017 3.27969L2.08877 3.27969L2.08877 1.93566L6.62938 1.93566L6.62938 0L0 0L0 9.35243L6.62938 9.35243L6.62938 7.41786L2.08877 7.41786L2.08877 5.21427L5.47017 5.21427L5.47017 3.27969L2.08877 3.27969L2.08877 1.93566L6.62938 1.93566Z" transform="translate(181.0706 2.836029)" id="Fill-47" fill="#FFFFFF" stroke="none" />
    <path d="M9.26932 6.18866L9.34806 5.93167L7.15868 5.93167L7.10509 6.04212C7.00339 6.24881 6.87872 6.43363 6.72671 6.60751C6.49159 6.87872 6.1985 7.08978 5.85621 7.23742C5.15521 7.52941 4.36454 7.52832 3.68542 7.23195C3.34094 7.08103 3.04895 6.86888 2.81601 6.59876C2.66837 6.43144 2.5448 6.24334 2.44747 6.04102C2.25609 5.6517 2.15766 5.19349 2.15766 4.68168C2.15766 4.16879 2.25609 3.70948 2.44856 3.31906C2.54042 3.12331 2.66509 2.93412 2.81929 2.75586C3.05223 2.48465 3.34312 2.27359 3.68651 2.12595C4.36345 1.82959 5.15193 1.8274 5.85183 2.11939C6.19632 2.26812 6.49159 2.48028 6.7278 2.75258C6.87872 2.92646 7.00339 3.11237 7.10619 3.32344L7.16087 3.43389L9.34806 3.43389L9.27041 3.1769C9.0506 2.4584 8.67878 1.84052 8.16588 1.34184C7.72516 0.914246 7.20898 0.5807 6.63375 0.352138C6.03556 0.114828 5.42424 0 4.76589 0C4.10755 0 3.49732 0.114828 2.89912 0.351044C2.30202 0.579606 1.79787 0.90003 1.35825 1.332C0.931744 1.74647 0.59601 2.2539 0.358699 2.83679C0.3073 2.95927 0.269025 3.06754 0.238404 3.16815C0.0798325 3.65042 0 4.15895 0 4.68168C0 5.2088 0.0798325 5.71513 0.236217 6.18429C0.266837 6.28271 0.305113 6.38769 0.358699 6.51783C0.592729 7.09853 0.929557 7.60705 1.35934 8.02918C1.79568 8.4535 2.29983 8.77611 2.89912 9.01451C3.50169 9.24636 4.11301 9.359 4.76589 9.359C5.42314 9.359 6.03556 9.24307 6.63703 9.00576C7.21117 8.77611 7.72735 8.44256 8.16916 8.01387C8.68097 7.51301 9.05169 6.8984 9.26932 6.18866L9.26932 6.18866L9.34806 5.93167L7.15868 5.93167L7.10509 6.04212C7.00339 6.24881 6.87872 6.43363 6.72671 6.60751C6.49159 6.87872 6.1985 7.08978 5.85621 7.23742C5.15521 7.52941 4.36454 7.52832 3.68542 7.23195C3.34094 7.08103 3.04895 6.86888 2.81601 6.59876C2.66837 6.43144 2.5448 6.24334 2.44747 6.04102C2.25609 5.6517 2.15766 5.19349 2.15766 4.68168C2.15766 4.16879 2.25609 3.70948 2.44856 3.31906C2.54042 3.12331 2.66509 2.93412 2.81929 2.75586C3.05223 2.48465 3.34312 2.27359 3.68651 2.12595C4.36345 1.82959 5.15193 1.8274 5.85183 2.11939C6.19632 2.26812 6.49159 2.48028 6.7278 2.75258C6.87872 2.92646 7.00339 3.11237 7.10619 3.32344L7.16087 3.43389L9.34806 3.43389L9.27041 3.1769C9.0506 2.4584 8.67878 1.84052 8.16588 1.34184C7.72516 0.914246 7.20898 0.5807 6.63375 0.352138C6.03556 0.114828 5.42424 0 4.76589 0C4.10755 0 3.49732 0.114828 2.89912 0.351044C2.30202 0.579606 1.79787 0.90003 1.35825 1.332C0.931744 1.74647 0.59601 2.2539 0.358699 2.83679C0.3073 2.95927 0.269025 3.06754 0.238404 3.16815C0.0798325 3.65042 0 4.15895 0 4.68168C0 5.2088 0.0798325 5.71513 0.236217 6.18429C0.266837 6.28271 0.305113 6.38769 0.358699 6.51783C0.592729 7.09853 0.929557 7.60705 1.35934 8.02918C1.79568 8.4535 2.29983 8.77611 2.89912 9.01451C3.50169 9.24636 4.11301 9.359 4.76589 9.359C5.42314 9.359 6.03556 9.24307 6.63703 9.00576C7.21117 8.77611 7.72735 8.44256 8.16916 8.01387C8.68097 7.51301 9.05169 6.8984 9.26932 6.18866" transform="translate(190.0981 2.830338)" id="Fill-49" fill="#FFFFFF" stroke="none" />
    <path d="M8.1287 0L0 0L0 1.94113L3.01723 1.94113L3.01723 9.359L5.10491 9.359L5.10491 1.94113L8.1287 1.94113L8.1287 0L0 0L0 1.94113L3.01723 1.94113L3.01723 9.359L5.10491 9.359L5.10491 1.94113L8.1287 1.94113L8.1287 0Z" transform="translate(201.6609 2.830124)" id="Fill-51" fill="#FFFFFF" stroke="none" />
    <g id="Group-55" transform="translate(0 19.62994)">
      <path d="M0 0L5.09342 0L5.09342 6.15574L0 6.15574L0 0L5.09342 0L5.09342 6.15574L0 6.15574L0 0Z" id="Clip-54" fill="none" stroke="none" />
      <g clip-path="url(#mask_1)">
        <path d="M5.09397 3.9785C5.09397 3.92382 5.06007 3.88992 5.00539 3.88992L4.48484 3.88992L4.48484 0.0885813C4.48484 0.0349951 4.45094 0 4.39626 0L1.09578 0C1.0411 0 1.0072 0.0349951 1.0072 0.0885813L1.0072 2.33592C1.0072 2.71868 0.9733 2.98552 0.856286 3.20533L0.480089 3.88992L0.0896749 3.88992C0.0349951 3.88992 0 3.92382 0 3.9785L0 6.06727C0 6.12195 0.0349951 6.15585 0.0896749 6.15585L0.945961 6.15585C1.00064 6.15585 1.03564 6.12195 1.03564 6.06727L1.03564 4.85557L4.06052 4.85557L4.06052 6.06727C4.06052 6.12195 4.09442 6.15585 4.1502 6.15585L5.00539 6.15585C5.06007 6.15585 5.09397 6.12195 5.09397 6.06727L5.09397 3.9785ZM1.81537 3.65699C2.00675 3.30813 2.10955 2.9035 2.10955 2.33592L2.10955 0.973301L3.38359 0.973301L3.38359 3.88992L1.69289 3.88992L1.81537 3.65699Z" transform="translate(-0.0005493164 0)" id="Fill-53" fill="#FFFFFF" fill-rule="evenodd" stroke="none" />
      </g>
    </g>
    <path d="M2.78758 1.87661C2.84226 1.87661 2.87616 1.91051 2.87616 1.96629L2.87616 2.75258C2.87616 2.80835 2.84226 2.84226 2.78758 2.84226L1.10891 2.84226L1.10891 3.88992L3.34859 3.88992C3.40327 3.88992 3.43717 3.92382 3.43717 3.9785L3.43717 4.76698C3.43717 4.82057 3.40327 4.85557 3.34859 4.85557L0.0896749 4.85557C0.0339015 4.85557 0 4.82057 0 4.76698L0 0.0885813C0 0.0339015 0.0339015 0 0.0896749 0L3.38249 0C3.44483 0 3.47107 0.0404631 3.45904 0.102798L3.23923 0.896749C3.22501 0.944867 3.19111 0.973301 3.143 0.973301L1.10891 0.973301L1.10891 1.87661L2.78758 1.87661C2.84226 1.87661 2.87616 1.91051 2.87616 1.96629L2.87616 2.75258C2.87616 2.80835 2.84226 2.84226 2.78758 2.84226L1.10891 2.84226L1.10891 3.88992L3.34859 3.88992C3.40327 3.88992 3.43717 3.92382 3.43717 3.9785L3.43717 4.76698C3.43717 4.82057 3.40327 4.85557 3.34859 4.85557L0.0896749 4.85557C0.0339015 4.85557 0 4.82057 0 4.76698L0 0.0885813C0 0.0339015 0.0339015 0 0.0896749 0L3.38249 0C3.44483 0 3.47107 0.0404631 3.45904 0.102798L3.23923 0.896749C3.22501 0.944867 3.19111 0.973301 3.143 0.973301L1.10891 0.973301L1.10891 1.87661L2.78758 1.87661Z" transform="translate(7.0177 19.63005)" id="Fill-56" fill="#FFFFFF" stroke="none" />
    <path d="M3.88227 4.85447C3.82759 4.85447 3.79259 4.82057 3.79259 4.76589L3.79259 3.32125C3.79259 2.80726 3.80681 2.09533 3.8757 1.59556C3.88883 1.49932 3.80681 1.47854 3.77947 1.56712C3.71166 1.75194 3.63511 1.93785 3.56075 2.12267L3.18346 3.16268C3.12222 3.34094 3.0402 3.60121 2.95818 3.84727C2.94396 3.90304 2.91006 3.92273 2.86194 3.92273L2.03409 3.92273C1.98597 3.92273 1.95098 3.90304 1.93785 3.84727C1.85583 3.60121 1.77381 3.34094 1.70492 3.16268L1.32872 2.11502C1.25982 1.9302 1.18436 1.75194 1.11656 1.56712C1.08157 1.47854 0.999547 1.49932 1.01376 1.59556C1.08157 2.09533 1.10891 2.80726 1.10891 3.32125L1.10891 4.76589C1.10891 4.82057 1.075 4.85447 1.02033 4.85447L0.0896749 4.85447C0.0339015 4.85447 0 4.82057 0 4.76589L0 0.0885813C0 0.0339015 0.0339015 0 0.0896749 0L1.47198 0C1.5201 0 1.55509 0.0196847 1.56712 0.0743645C1.61524 0.225281 1.67101 0.403537 1.71804 0.54133L2.07455 1.57368C2.18391 1.88973 2.32061 2.30749 2.39716 2.61479C2.41685 2.69681 2.48574 2.69681 2.50652 2.61479C2.58198 2.29983 2.70446 1.87552 2.80726 1.57368L3.1769 0.54133C3.23158 0.403537 3.28626 0.225281 3.32781 0.0743645C3.34203 0.0273399 3.37593 0 3.43061 0L4.80745 0C4.86213 0 4.89603 0.0339015 4.89603 0.0885813L4.89603 4.76589C4.89603 4.82057 4.86213 4.85447 4.80745 4.85447L3.88227 4.85447C3.82759 4.85447 3.79259 4.82057 3.79259 4.76589L3.79259 3.32125C3.79259 2.80726 3.80681 2.09533 3.8757 1.59556C3.88883 1.49932 3.80681 1.47854 3.77947 1.56712C3.71166 1.75194 3.63511 1.93785 3.56075 2.12267L3.18346 3.16268C3.12222 3.34094 3.0402 3.60121 2.95818 3.84727C2.94396 3.90304 2.91006 3.92273 2.86194 3.92273L2.03409 3.92273C1.98597 3.92273 1.95098 3.90304 1.93785 3.84727C1.85583 3.60121 1.77381 3.34094 1.70492 3.16268L1.32872 2.11502C1.25982 1.9302 1.18436 1.75194 1.11656 1.56712C1.08157 1.47854 0.999547 1.49932 1.01376 1.59556C1.08157 2.09533 1.10891 2.80726 1.10891 3.32125L1.10891 4.76589C1.10891 4.82057 1.075 4.85447 1.02033 4.85447L0.0896749 4.85447C0.0339015 4.85447 0 4.82057 0 4.76589L0 0.0885813C0 0.0339015 0.0339015 0 0.0896749 0L1.47198 0C1.5201 0 1.55509 0.0196847 1.56712 0.0743645C1.61524 0.225281 1.67101 0.403537 1.71804 0.54133L2.07455 1.57368C2.18391 1.88973 2.32061 2.30749 2.39716 2.61479C2.41685 2.69681 2.48574 2.69681 2.50652 2.61479C2.58198 2.29983 2.70446 1.87552 2.80726 1.57368L3.1769 0.54133C3.23158 0.403537 3.28626 0.225281 3.32781 0.0743645C3.34203 0.0273399 3.37593 0 3.43061 0L4.80745 0C4.86213 0 4.89603 0.0339015 4.89603 0.0885813L4.89603 4.76589C4.89603 4.82057 4.86213 4.85447 4.80745 4.85447L3.88227 4.85447Z" transform="translate(12.44775 19.63081)" id="Fill-58" fill="#FFFFFF" stroke="none" />
    <path d="M2.18501 5.00539C3.53341 5.00539 4.36235 4.03318 4.36235 2.49996C4.36235 0.959084 3.53341 0 2.18501 0C0.828946 0 0 0.959084 0 2.49996C0 4.03318 0.828946 5.00539 2.18501 5.00539ZM2.18501 4.02006C1.5201 4.02006 1.11656 3.43717 1.11656 2.49996C1.11656 1.54088 1.5201 0.992985 2.18501 0.992985C2.84882 0.992985 3.24689 1.54088 3.24689 2.49996C3.24689 3.43717 2.84882 4.02006 2.18501 4.02006Z" transform="translate(19.32776 19.5546)" id="Fill-60" fill="#FFFFFF" fill-rule="evenodd" stroke="none" />
    <path d="M2.97896 4.85447C2.92428 4.85447 2.88928 4.82057 2.88928 4.76589L2.88928 2.84116L1.11 2.84116L1.11 4.76589C1.11 4.82057 1.075 4.85447 1.02033 4.85447L0.0896749 4.85447C0.0339015 4.85447 0 4.82057 0 4.76589L0 0.0885813C0 0.0339015 0.0339015 0 0.0896749 0L1.02033 0C1.075 0 1.11 0.0339015 1.11 0.0885813L1.11 1.87552L2.88928 1.87552L2.88928 0.0885813C2.88928 0.0339015 2.92428 0 2.97896 0L3.90304 0C3.95772 0 3.99163 0.0339015 3.99163 0.0885813L3.99163 4.76589C3.99163 4.82057 3.95772 4.85447 3.90304 4.85447L2.97896 4.85447C2.92428 4.85447 2.88928 4.82057 2.88928 4.76589L2.88928 2.84116L1.11 2.84116L1.11 4.76589C1.11 4.82057 1.075 4.85447 1.02033 4.85447L0.0896749 4.85447C0.0339015 4.85447 0 4.82057 0 4.76589L0 0.0885813C0 0.0339015 0.0339015 0 0.0896749 0L1.02033 0C1.075 0 1.11 0.0339015 1.11 0.0885813L1.11 1.87552L2.88928 1.87552L2.88928 0.0885813C2.88928 0.0339015 2.92428 0 2.97896 0L3.90304 0C3.95772 0 3.99163 0.0339015 3.99163 0.0885813L3.99163 4.76589C3.99163 4.82057 3.95772 4.85447 3.90304 4.85447L2.97896 4.85447Z" transform="translate(25.6759 19.63081)" id="Fill-62" fill="#FFFFFF" stroke="none" />
    <path d="M2.54699 4.76589C2.54699 4.82057 2.51308 4.85447 2.4584 4.85447L1.53322 4.85447C1.47854 4.85447 1.44464 4.82057 1.44464 4.76589L1.44464 0.972207L0.0885813 0.972207C0.0339015 0.972207 0 0.938305 0 0.882532L0 0.0885813C0 0.0339015 0.0339015 0 0.0885813 0L3.89539 0C3.95116 0 3.98506 0.0339015 3.98506 0.0885813L3.98506 0.882532C3.98506 0.938305 3.95116 0.972207 3.89539 0.972207L2.54699 0.972207L2.54699 4.76589C2.54699 4.82057 2.51308 4.85447 2.4584 4.85447L1.53322 4.85447C1.47854 4.85447 1.44464 4.82057 1.44464 4.76589L1.44464 0.972207L0.0885813 0.972207C0.0339015 0.972207 0 0.938305 0 0.882532L0 0.0885813C0 0.0339015 0.0339015 0 0.0885813 0L3.89539 0C3.95116 0 3.98506 0.0339015 3.98506 0.0885813L3.98506 0.882532C3.98506 0.938305 3.95116 0.972207 3.89539 0.972207L2.54699 0.972207L2.54699 4.76589Z" transform="translate(31.59192 19.63071)" id="Fill-64" fill="#FFFFFF" stroke="none" />
    <path d="M1.0479 4.85557C1.09602 4.85557 1.12992 4.83479 1.1496 4.78667L1.3552 4.21144L3.36851 4.21144L3.57411 4.78667C3.59489 4.83479 3.62879 4.85557 3.67691 4.85557L4.64146 4.85557C4.71035 4.85557 4.73769 4.8151 4.71801 4.75277L3.75127 2.13689C3.49865 1.43808 3.27227 0.766611 3.10167 0.0754581C3.08746 0.0284335 3.05356 0 2.99888 0L1.72484 0C1.67016 0 1.63626 0.0284335 1.62313 0.0754581C1.45144 0.766611 1.22616 1.43808 0.971349 2.13689L0.00679689 4.75277C-0.0139814 4.8151 0.0133585 4.85557 0.082255 4.85557L1.0479 4.85557ZM2.42364 1.34294C2.50566 1.78694 2.72438 2.43106 2.92342 2.9713L3.01965 3.24579L1.70515 3.24579L1.80139 2.9713C1.99933 2.4245 2.21149 1.78694 2.30007 1.34294C2.32085 1.26092 2.40287 1.26092 2.42364 1.34294Z" transform="translate(36.52863 19.63005)" id="Fill-66" fill="#FFFFFF" fill-rule="evenodd" stroke="none" />
    <path d="M5.39205 1.6907C5.23458 2.05487 5.08366 2.19813 4.79714 2.31405C4.76214 2.32827 4.76214 2.38295 4.79714 2.39716C5.08366 2.54042 5.26192 2.76024 5.41393 3.09488L6.17288 4.75277C6.20022 4.81401 6.17288 4.85557 6.10508 4.85557L5.12522 4.85557C5.07054 4.85557 5.0432 4.83479 5.02242 4.78667L4.53686 3.73135C4.35204 3.33547 4.20113 2.84226 3.76916 2.84226L3.63902 2.84226L3.63902 4.76698C3.63902 4.82057 3.60512 4.85557 3.55044 4.85557L2.62635 4.85557C2.57167 4.85557 2.53777 4.82057 2.53777 4.76698L2.53777 2.84226L2.40763 2.84226C1.98222 2.84226 1.82474 3.33547 1.64649 3.73135L1.16093 4.78667C1.14015 4.83479 1.11281 4.85557 1.05813 4.85557L0.0793639 4.85557C0.0104673 4.85557 -0.0168726 4.81401 0.0104673 4.75277L0.763955 3.09488C0.907216 2.7657 1.09969 2.54042 1.37965 2.39716C1.41355 2.38295 1.41355 2.32827 1.37965 2.31405C1.09969 2.19813 0.948773 2.05487 0.790201 1.6907L0.0728023 0.102798C0.0443688 0.0404631 0.0728023 0 0.140605 0L1.11937 0C1.17515 0 1.20139 0.0207783 1.22217 0.0688966L1.66727 1.06188C1.81818 1.40308 2.003 1.87661 2.40763 1.87661L2.53777 1.87661L2.53777 0.0885813C2.53777 0.0339015 2.57167 0 2.62635 0L3.55044 0C3.60512 0 3.63902 0.0339015 3.63902 0.0885813L3.63902 1.87661L3.76916 1.87661C4.18035 1.87661 4.35861 1.40308 4.51499 1.06188L4.95352 0.0688966C4.97539 0.0207783 5.00164 0 5.05632 0L6.04274 0C6.11164 0 6.13898 0.0404631 6.11164 0.102798L5.39205 1.6907C5.23458 2.05487 5.08366 2.19813 4.79714 2.31405C4.76214 2.32827 4.76214 2.38295 4.79714 2.39716C5.08366 2.54042 5.26192 2.76024 5.41393 3.09488L6.17288 4.75277C6.20022 4.81401 6.17288 4.85557 6.10508 4.85557L5.12522 4.85557C5.07054 4.85557 5.0432 4.83479 5.02242 4.78667L4.53686 3.73135C4.35204 3.33547 4.20113 2.84226 3.76916 2.84226L3.63902 2.84226L3.63902 4.76698C3.63902 4.82057 3.60512 4.85557 3.55044 4.85557L2.62635 4.85557C2.57167 4.85557 2.53777 4.82057 2.53777 4.76698L2.53777 2.84226L2.40763 2.84226C1.98222 2.84226 1.82474 3.33547 1.64649 3.73135L1.16093 4.78667C1.14015 4.83479 1.11281 4.85557 1.05813 4.85557L0.0793639 4.85557C0.0104673 4.85557 -0.0168726 4.81401 0.0104673 4.75277L0.763955 3.09488C0.907216 2.7657 1.09969 2.54042 1.37965 2.39716C1.41355 2.38295 1.41355 2.32827 1.37965 2.31405C1.09969 2.19813 0.948773 2.05487 0.790201 1.6907L0.0728023 0.102798C0.0443688 0.0404631 0.0728023 0 0.140605 0L1.11937 0C1.17515 0 1.20139 0.0207783 1.22217 0.0688966L1.66727 1.06188C1.81818 1.40308 2.003 1.87661 2.40763 1.87661L2.53777 1.87661L2.53777 0.0885813C2.53777 0.0339015 2.57167 0 2.62635 0L3.55044 0C3.60512 0 3.63902 0.0339015 3.63902 0.0885813L3.63902 1.87661L3.76916 1.87661C4.18035 1.87661 4.35861 1.40308 4.51499 1.06188L4.95352 0.0688966C4.97539 0.0207783 5.00164 0 5.05632 0L6.04274 0C6.11164 0 6.13898 0.0404631 6.11164 0.102798L5.39205 1.6907Z" transform="translate(42.96088 19.63016)" id="Fill-68" fill="#FFFFFF" stroke="none" />
    <path d="M0.555807 0.184818C0.980123 0.0481182 1.33007 0 1.74017 0C2.85017 0 3.52055 0.51399 3.52055 1.3495C3.52055 1.78803 3.35651 2.1172 2.90376 2.35561C2.82939 2.39716 2.82939 2.45184 2.90376 2.48028C3.38385 2.65744 3.6988 2.98661 3.6988 3.54763C3.6988 4.37548 2.96609 5.00539 1.73361 5.00539C1.3093 5.00539 0.952783 4.93759 0.549246 4.81401L0.0625956 4.65653C0.00791582 4.63575 -0.0128625 4.60185 0.00791582 4.54608L0.295532 3.79478C0.308655 3.73901 0.351305 3.71823 0.404891 3.73901L0.871857 3.88992C1.18572 3.99163 1.45256 4.02006 1.71283 4.02006C2.26072 4.02006 2.60302 3.82868 2.60302 3.46561C2.60302 3.07519 2.32306 2.91771 1.78173 2.91771L1.15838 2.91771C1.10261 2.91771 1.0687 2.88381 1.0687 2.82804L1.0687 2.04174C1.0687 1.98597 1.10261 1.95207 1.15838 1.95207L1.78173 1.95207C2.19839 1.95207 2.42476 1.76616 2.42476 1.47964C2.42476 1.1778 2.1787 0.992985 1.69971 0.992985C1.43943 0.992985 1.16494 1.02142 0.864201 1.12312L0.459571 1.25982C0.404891 1.2806 0.363335 1.25982 0.34365 1.20624L0.0625956 0.445094C0.0418173 0.390414 0.056034 0.356512 0.118369 0.335734L0.555807 0.184818C0.980123 0.0481182 1.33007 0 1.74017 0C2.85017 0 3.52055 0.51399 3.52055 1.3495C3.52055 1.78803 3.35651 2.1172 2.90376 2.35561C2.82939 2.39716 2.82939 2.45184 2.90376 2.48028C3.38385 2.65744 3.6988 2.98661 3.6988 3.54763C3.6988 4.37548 2.96609 5.00539 1.73361 5.00539C1.3093 5.00539 0.952783 4.93759 0.549246 4.81401L0.0625956 4.65653C0.00791582 4.63575 -0.0128625 4.60185 0.00791582 4.54608L0.295532 3.79478C0.308655 3.73901 0.351305 3.71823 0.404891 3.73901L0.871857 3.88992C1.18572 3.99163 1.45256 4.02006 1.71283 4.02006C2.26072 4.02006 2.60302 3.82868 2.60302 3.46561C2.60302 3.07519 2.32306 2.91771 1.78173 2.91771L1.15838 2.91771C1.10261 2.91771 1.0687 2.88381 1.0687 2.82804L1.0687 2.04174C1.0687 1.98597 1.10261 1.95207 1.15838 1.95207L1.78173 1.95207C2.19839 1.95207 2.42476 1.76616 2.42476 1.47964C2.42476 1.1778 2.1787 0.992985 1.69971 0.992985C1.43943 0.992985 1.16494 1.02142 0.864201 1.12312L0.459571 1.25982C0.404891 1.2806 0.363335 1.25982 0.34365 1.20624L0.0625956 0.445094C0.0418173 0.390414 0.056034 0.356512 0.118369 0.335734L0.555807 0.184818Z" transform="translate(53.6239 19.55437)" id="Fill-70" fill="#FFFFFF" stroke="none" />
    <g id="Group-74" transform="translate(58.96057 19.22411)">
      <path d="M0 0L5.09288 0L5.09288 6.15574L0 6.15574L0 0L5.09288 0L5.09288 6.15574L0 6.15574L0 0Z" transform="translate(0.07325517 0.4058335)" id="Clip-73" fill="none" stroke="none" />
      <g clip-path="url(#mask_2)">
        <path d="M5.09288 3.9785C5.09288 3.92382 5.05898 3.88992 5.0043 3.88992L4.48374 3.88992L4.48374 0.0885813C4.48374 0.0349951 4.44984 0 4.39516 0L1.09469 0C1.04001 0 1.00611 0.0349951 1.00611 0.0885813L1.00611 2.33592C1.00611 2.71868 0.972207 2.98552 0.855192 3.20533L0.478995 3.88992L0.0885813 3.88992C0.0339015 3.88992 0 3.92382 0 3.9785L0 6.06727C0 6.12195 0.0339015 6.15585 0.0885813 6.15585L0.944867 6.15585C0.998453 6.15585 1.03454 6.12195 1.03454 6.06727L1.03454 4.85557L4.06052 4.85557L4.06052 6.06727C4.06052 6.12195 4.09442 6.15585 4.1491 6.15585L5.0043 6.15585C5.05898 6.15585 5.09288 6.12195 5.09288 6.06727L5.09288 3.9785ZM1.81428 3.65699C2.00566 3.30813 2.10845 2.9035 2.10845 2.33592L2.10845 0.973301L3.38249 0.973301L3.38249 3.88992L1.69179 3.88992L1.81428 3.65699Z" transform="translate(0.07325517 0.4058335)" id="Fill-72" fill="#FFFFFF" fill-rule="evenodd" stroke="none" />
      </g>
    </g>
    <path d="M1.04778 4.85557C1.0959 4.85557 1.1298 4.83479 1.15058 4.78667L1.35508 4.21144L3.36948 4.21144L3.57399 4.78667C3.59476 4.83479 3.62867 4.85557 3.67678 4.85557L4.64243 4.85557C4.71023 4.85557 4.73867 4.8151 4.71789 4.75277L3.75224 2.13689C3.49853 1.43808 3.27325 0.766611 3.10155 0.0754581C3.08734 0.0284335 3.05343 0 2.99875 0L1.72471 0C1.67004 0 1.63613 0.0284335 1.62301 0.0754581C1.45132 0.766611 1.22494 1.43808 0.971227 2.13689L0.00667547 4.75277C-0.0141029 4.8151 0.0143306 4.85557 0.0821336 4.85557L1.04778 4.85557ZM2.42352 1.34294C2.50554 1.78694 2.72426 2.43106 2.9233 2.9713L3.01953 3.24579L1.70503 3.24579L1.80127 2.9713C1.99921 2.4245 2.21137 1.78694 2.29995 1.34294C2.32182 1.26092 2.40274 1.26092 2.42352 1.34294Z" transform="translate(65.83948 19.63005)" id="Fill-75" fill="#FFFFFF" fill-rule="evenodd" stroke="none" />
    <path d="M2.97896 4.85447C2.92428 4.85447 2.89037 4.82057 2.89037 4.76589L2.89037 2.84116L1.11 2.84116L1.11 4.76589C1.11 4.82057 1.075 4.85447 1.02033 4.85447L0.0896749 4.85447C0.0349951 4.85447 0 4.82057 0 4.76589L0 0.0885813C0 0.0339015 0.0349951 0 0.0896749 0L1.02033 0C1.075 0 1.11 0.0339015 1.11 0.0885813L1.11 1.87552L2.89037 1.87552L2.89037 0.0885813C2.89037 0.0339015 2.92428 0 2.97896 0L3.90304 0C3.95772 0 3.99272 0.0339015 3.99272 0.0885813L3.99272 4.76589C3.99272 4.82057 3.95772 4.85447 3.90304 4.85447L2.97896 4.85447C2.92428 4.85447 2.89037 4.82057 2.89037 4.76589L2.89037 2.84116L1.11 2.84116L1.11 4.76589C1.11 4.82057 1.075 4.85447 1.02033 4.85447L0.0896749 4.85447C0.0349951 4.85447 0 4.82057 0 4.76589L0 0.0885813C0 0.0339015 0.0349951 0 0.0896749 0L1.02033 0C1.075 0 1.11 0.0339015 1.11 0.0885813L1.11 1.87552L2.89037 1.87552L2.89037 0.0885813C2.89037 0.0339015 2.92428 0 2.97896 0L3.90304 0C3.95772 0 3.99272 0.0339015 3.99272 0.0885813L3.99272 4.76589C3.99272 4.82057 3.95772 4.85447 3.90304 4.85447L2.97896 4.85447Z" transform="translate(72.43939 19.63081)" id="Fill-77" fill="#FFFFFF" stroke="none" />
    <path d="M4.12286 4.76589C4.12286 4.82057 4.08896 4.85447 4.03318 4.85447L3.10909 4.85447C3.05441 4.85447 3.02051 4.82057 3.02051 4.76589L3.02051 2.83351C3.02051 2.34139 3.02707 2.02643 3.09597 1.60102C3.10909 1.50588 3.03364 1.46433 2.98661 1.57368C2.89694 1.73772 2.82257 1.8963 2.73946 2.07455L1.76069 4.05943C1.65024 4.2858 1.52119 4.54608 1.41183 4.78667C1.39105 4.83369 1.36371 4.85447 1.30794 4.85447L0.0896749 4.85447C0.0349951 4.85447 0 4.82057 0 4.76589L0 0.0885813C0 0.0339015 0.0349951 0 0.0896749 0L1.02142 0C1.075 0 1.11 0.0339015 1.11 0.0885813L1.11 2.00675C1.11 2.49887 1.09578 2.82038 1.03454 3.25126C1.02689 3.34094 1.09578 3.38249 1.15156 3.27969C1.23358 3.10144 1.30794 2.94396 1.39762 2.7657L2.36982 0.793951C2.47918 0.567576 2.60932 0.307301 2.71212 0.067803C2.7329 0.0196847 2.76024 0 2.81492 0L4.03318 0C4.08896 0 4.12286 0.0339015 4.12286 0.0885813L4.12286 4.76589C4.12286 4.82057 4.08896 4.85447 4.03318 4.85447L3.10909 4.85447C3.05441 4.85447 3.02051 4.82057 3.02051 4.76589L3.02051 2.83351C3.02051 2.34139 3.02707 2.02643 3.09597 1.60102C3.10909 1.50588 3.03364 1.46433 2.98661 1.57368C2.89694 1.73772 2.82257 1.8963 2.73946 2.07455L1.76069 4.05943C1.65024 4.2858 1.52119 4.54608 1.41183 4.78667C1.39105 4.83369 1.36371 4.85447 1.30794 4.85447L0.0896749 4.85447C0.0349951 4.85447 0 4.82057 0 4.76589L0 0.0885813C0 0.0339015 0.0349951 0 0.0896749 0L1.02142 0C1.075 0 1.11 0.0339015 1.11 0.0885813L1.11 2.00675C1.11 2.49887 1.09578 2.82038 1.03454 3.25126C1.02689 3.34094 1.09578 3.38249 1.15156 3.27969C1.23358 3.10144 1.30794 2.94396 1.39762 2.7657L2.36982 0.793951C2.47918 0.567576 2.60932 0.307301 2.71212 0.067803C2.7329 0.0196847 2.76024 0 2.81492 0L4.03318 0C4.08896 0 4.12286 0.0339015 4.12286 0.0885813L4.12286 4.76589Z" transform="translate(78.5603 19.63071)" id="Fill-79" fill="#FFFFFF" stroke="none" />
    <path d="M2.10189 1.0411C2.84226 1.0411 3.18346 0.767704 3.18346 0.170601L3.18346 0.0885813C3.18346 0.0339015 3.14956 0 3.09488 0L2.43763 0C2.38295 0 2.34904 0.0339015 2.34904 0.0885813L2.34904 0.130138C2.34904 0.273399 2.28015 0.376197 2.10189 0.376197C1.92473 0.376197 1.85583 0.273399 1.85583 0.130138L1.85583 0.0885813C1.85583 0.0339015 1.82084 0 1.76616 0L1.11656 0C1.06079 0 1.02689 0.0339015 1.02689 0.0885813L1.02689 0.170601C1.02689 0.767704 1.36262 1.0411 2.10189 1.0411ZM3.02051 6.24553C3.02051 6.29911 3.05441 6.33411 3.10909 6.33411L4.03318 6.33411C4.08786 6.33411 4.12176 6.29911 4.12176 6.24553L4.12176 1.56712C4.12176 1.51354 4.08786 1.47854 4.03318 1.47854L2.81382 1.47854C2.75914 1.47854 2.7318 1.49932 2.71102 1.54744C2.60932 1.78694 2.47809 2.04721 2.36873 2.27359L1.39652 4.24534C1.30794 4.4236 1.23248 4.57998 1.15046 4.75824C1.09469 4.86213 1.02689 4.82057 1.03454 4.7309C1.09469 4.29893 1.10891 3.97741 1.10891 3.48529L1.10891 1.56712C1.10891 1.51354 1.07501 1.47854 1.02033 1.47854L0.0896749 1.47854C0.0339015 1.47854 0 1.51354 0 1.56712L0 6.24553C0 6.29911 0.0339015 6.33411 0.0896749 6.33411L1.30794 6.33411C1.36262 6.33411 1.38996 6.31333 1.41074 6.26521C1.5201 6.02571 1.65024 5.76434 1.7596 5.53906L2.73946 3.55419C2.82148 3.37593 2.89584 3.21736 2.98552 3.05332C3.03254 2.94396 3.10909 2.98442 3.09488 3.08066C3.02598 3.50607 3.02051 3.82102 3.02051 4.31314L3.02051 6.24553Z" transform="translate(84.80597 18.1514)" id="Fill-81" fill="#FFFFFF" fill-rule="evenodd" stroke="none" />
    <path d="M4.12286 4.76589C4.12286 4.82057 4.08896 4.85447 4.03428 4.85447L3.10909 4.85447C3.05441 4.85447 3.02051 4.82057 3.02051 4.76589L3.02051 2.83351C3.02051 2.34139 3.02707 2.02643 3.09597 1.60102C3.10909 1.50588 3.03364 1.46433 2.98661 1.57368C2.89694 1.73772 2.82257 1.8963 2.73946 2.07455L1.76069 4.05943C1.65024 4.2858 1.52119 4.54608 1.41183 4.78667C1.39105 4.83369 1.36371 4.85447 1.30903 4.85447L0.0896749 4.85447C0.0349951 4.85447 0 4.82057 0 4.76589L0 0.0885813C0 0.0339015 0.0349951 0 0.0896749 0L1.02142 0C1.0761 0 1.11 0.0339015 1.11 0.0885813L1.11 2.00675C1.11 2.49887 1.09578 2.82038 1.03454 3.25126C1.02689 3.34094 1.09578 3.38249 1.15156 3.27969C1.23358 3.10144 1.30903 2.94396 1.39762 2.7657L2.36982 0.793951C2.47918 0.567576 2.60932 0.307301 2.71212 0.067803C2.7329 0.0196847 2.76024 0 2.81492 0L4.03428 0C4.08896 0 4.12286 0.0339015 4.12286 0.0885813L4.12286 4.76589C4.12286 4.82057 4.08896 4.85447 4.03428 4.85447L3.10909 4.85447C3.05441 4.85447 3.02051 4.82057 3.02051 4.76589L3.02051 2.83351C3.02051 2.34139 3.02707 2.02643 3.09597 1.60102C3.10909 1.50588 3.03364 1.46433 2.98661 1.57368C2.89694 1.73772 2.82257 1.8963 2.73946 2.07455L1.76069 4.05943C1.65024 4.2858 1.52119 4.54608 1.41183 4.78667C1.39105 4.83369 1.36371 4.85447 1.30903 4.85447L0.0896749 4.85447C0.0349951 4.85447 0 4.82057 0 4.76589L0 0.0885813C0 0.0339015 0.0349951 0 0.0896749 0L1.02142 0C1.0761 0 1.11 0.0339015 1.11 0.0885813L1.11 2.00675C1.11 2.49887 1.09578 2.82038 1.03454 3.25126C1.02689 3.34094 1.09578 3.38249 1.15156 3.27969C1.23358 3.10144 1.30903 2.94396 1.39762 2.7657L2.36982 0.793951C2.47918 0.567576 2.60932 0.307301 2.71212 0.067803C2.7329 0.0196847 2.76024 0 2.81492 0L4.03428 0C4.08896 0 4.12286 0.0339015 4.12286 0.0885813L4.12286 4.76589Z" transform="translate(93.65063 19.63071)" id="Fill-83" fill="#FFFFFF" stroke="none" />
    <path d="M3.24579 4.84244C2.87616 4.96493 2.5951 5.00539 2.21891 5.00539C0.842069 5.00539 0 4.04084 0 2.49996C0 0.966739 0.842069 0 2.21891 0C2.60823 0 2.89584 0.0349951 3.23814 0.144355L3.55309 0.247153C3.60777 0.266837 3.62965 0.301833 3.60777 0.356512L3.36171 1.13078C3.34203 1.18546 3.30703 1.20624 3.25235 1.18546L2.92974 1.08266C2.7318 1.02142 2.53386 0.992985 2.21891 0.992985C1.53322 0.992985 1.11547 1.54744 1.11547 2.49996C1.11547 3.46561 1.53322 4.02006 2.21891 4.02006C2.47153 4.02006 2.67712 3.99928 2.92428 3.91726L3.24579 3.82102C3.30047 3.80134 3.34203 3.82102 3.35515 3.8757L3.62965 4.62263C3.64933 4.67731 3.63511 4.71231 3.57387 4.73199L3.24579 4.84244C2.87616 4.96493 2.5951 5.00539 2.21891 5.00539C0.842069 5.00539 0 4.04084 0 2.49996C0 0.966739 0.842069 0 2.21891 0C2.60823 0 2.89584 0.0349951 3.23814 0.144355L3.55309 0.247153C3.60777 0.266837 3.62965 0.301833 3.60777 0.356512L3.36171 1.13078C3.34203 1.18546 3.30703 1.20624 3.25235 1.18546L2.92974 1.08266C2.7318 1.02142 2.53386 0.992985 2.21891 0.992985C1.53322 0.992985 1.11547 1.54744 1.11547 2.49996C1.11547 3.46561 1.53322 4.02006 2.21891 4.02006C2.47153 4.02006 2.67712 3.99928 2.92428 3.91726L3.24579 3.82102C3.30047 3.80134 3.34203 3.82102 3.35515 3.8757L3.62965 4.62263C3.64933 4.67731 3.63511 4.71231 3.57387 4.73199L3.24579 4.84244Z" transform="translate(102.3613 19.55415)" id="Fill-85" fill="#FFFFFF" stroke="none" />
    <path d="M2.18501 5.00539C3.53341 5.00539 4.36235 4.03318 4.36235 2.49996C4.36235 0.959084 3.53341 0 2.18501 0C0.828946 0 0 0.959084 0 2.49996C0 4.03318 0.828946 5.00539 2.18501 5.00539ZM2.185 4.02006C1.5201 4.02006 1.11656 3.43717 1.11656 2.49996C1.11656 1.54088 1.5201 0.992985 2.185 0.992985C2.84882 0.992985 3.24579 1.54088 3.24579 2.49996C3.24579 3.43717 2.84882 4.02006 2.185 4.02006Z" transform="translate(107.7761 19.5546)" id="Fill-87" fill="#FFFFFF" fill-rule="evenodd" stroke="none" />
    <path d="M2.1861 5.00539C3.5345 5.00539 4.36345 4.03318 4.36345 2.49996C4.36345 0.959084 3.5345 0 2.1861 0C0.828946 0 0 0.959084 0 2.49996C0 4.03318 0.828946 5.00539 2.1861 5.00539ZM2.1861 4.02006C1.52119 4.02006 1.11656 3.43717 1.11656 2.49996C1.11656 1.54088 1.52119 0.992985 2.1861 0.992985C2.84991 0.992985 3.24689 1.54088 3.24689 2.49996C3.24689 3.43717 2.84991 4.02006 2.1861 4.02006Z" transform="translate(113.9863 19.5546)" id="Fill-89" fill="#FFFFFF" fill-rule="evenodd" stroke="none" />
    <path d="M3.6712 1.61633C3.6712 0.603665 3.03364 0 1.93895 0L0.0896749 0C0.0349951 0 0 0.0349951 0 0.0885813L0 4.76698C0 4.82167 0.0349951 4.85557 0.0896749 4.85557L1.02142 4.85557C1.0761 4.85557 1.11 4.82167 1.11 4.76698L1.11 3.30813L1.69835 3.30813C2.94505 3.30813 3.6712 2.68368 3.6712 1.61633ZM2.55464 1.61634C2.55464 2.07565 2.23968 2.34248 1.69835 2.34248L1.11 2.34248L1.11 0.973301L1.93895 0.973301C2.32936 0.973301 2.55464 1.2128 2.55464 1.61634Z" transform="translate(120.3335 19.62984)" id="Fill-91" fill="#FFFFFF" fill-rule="evenodd" stroke="none" />
    <path d="M2.85022 3.60231C2.43246 4.47062 1.84302 4.85557 1.01516 4.85557L0.706769 4.85557C0.65209 4.85557 0.617095 4.82057 0.617095 4.76589L0.617095 3.9785C0.617095 3.92382 0.65209 3.88992 0.706769 3.88992L1.01516 3.88992C1.34324 3.88992 1.54228 3.68432 1.54228 3.32781C1.54228 3.13534 1.50181 2.92318 1.27544 2.49231L0.0145232 0.102798C-0.0193783 0.0404631 0.00796162 0 0.0768582 0L1.09062 0C1.13874 0 1.17264 0.0207783 1.19233 0.062335L1.82333 1.25982C2.02783 1.63602 2.19297 2.03409 2.26186 2.28015C2.28155 2.35561 2.35701 2.36217 2.38435 2.28015C2.46637 2.03409 2.58994 1.6568 2.78132 1.25982L3.34234 0.0688966C3.36968 0.0207783 3.39702 0 3.45279 0L4.44468 0C4.51358 0 4.54092 0.0404631 4.51358 0.102798L2.85022 3.60231C2.43246 4.47062 1.84302 4.85557 1.01516 4.85557L0.706769 4.85557C0.65209 4.85557 0.617095 4.82057 0.617095 4.76589L0.617095 3.9785C0.617095 3.92382 0.65209 3.88992 0.706769 3.88992L1.01516 3.88992C1.34324 3.88992 1.54228 3.68432 1.54228 3.32781C1.54228 3.13534 1.50181 2.92318 1.27544 2.49231L0.0145232 0.102798C-0.0193783 0.0404631 0.00796162 0 0.0768582 0L1.09062 0C1.13874 0 1.17264 0.0207783 1.19233 0.062335L1.82333 1.25982C2.02783 1.63602 2.19297 2.03409 2.26186 2.28015C2.28155 2.35561 2.35701 2.36217 2.38435 2.28015C2.46637 2.03409 2.58994 1.6568 2.78132 1.25982L3.34234 0.0688966C3.36968 0.0207783 3.39702 0 3.45279 0L4.44468 0C4.51358 0 4.54092 0.0404631 4.51358 0.102798L2.85022 3.60231Z" transform="translate(125.5573 19.63016)" id="Fill-93" fill="#FFFFFF" stroke="none" />
    <path d="M5.39205 1.6907C5.23348 2.05487 5.08366 2.19813 4.79604 2.31405C4.76214 2.32827 4.76214 2.38295 4.79604 2.39716C5.08366 2.54042 5.26192 2.76024 5.41283 3.09488L6.17288 4.75277C6.19913 4.81401 6.17288 4.85557 6.10398 4.85557L5.12522 4.85557C5.06944 4.85557 5.0432 4.83479 5.02132 4.78667L4.53686 3.73135C4.35204 3.33547 4.20113 2.84226 3.76916 2.84226L3.63793 2.84226L3.63793 4.76698C3.63793 4.82057 3.60402 4.85557 3.54934 4.85557L2.62526 4.85557C2.57058 4.85557 2.53667 4.82057 2.53667 4.76698L2.53667 2.84226L2.40654 2.84226C1.98222 2.84226 1.82474 3.33547 1.64649 3.73135L1.15984 4.78667C1.13906 4.83479 1.11172 4.85557 1.05704 4.85557L0.0793639 4.85557C0.0104673 4.85557 -0.0168726 4.81401 0.0104673 4.75277L0.763955 3.09488C0.906123 2.7657 1.0986 2.54042 1.37965 2.39716C1.41355 2.38295 1.41355 2.32827 1.37965 2.31405C1.0986 2.19813 0.948773 2.05487 0.790201 1.6907L0.0728023 0.102798C0.0443688 0.0404631 0.0728023 0 0.140605 0L1.11937 0C1.17405 0 1.20139 0.0207783 1.22217 0.0688966L1.66727 1.06188C1.81709 1.40308 2.00191 1.87661 2.40654 1.87661L2.53667 1.87661L2.53667 0.0885813C2.53667 0.0339015 2.57058 0 2.62526 0L3.54934 0C3.60402 0 3.63793 0.0339015 3.63793 0.0885813L3.63793 1.87661L3.76916 1.87661C4.18035 1.87661 4.3586 1.40308 4.51499 1.06188L4.95352 0.0688966C4.9743 0.0207783 5.00164 0 5.05523 0L6.04274 0C6.11055 0 6.13898 0.0404631 6.11055 0.102798L5.39205 1.6907C5.23348 2.05487 5.08366 2.19813 4.79604 2.31405C4.76214 2.32827 4.76214 2.38295 4.79604 2.39716C5.08366 2.54042 5.26192 2.76024 5.41283 3.09488L6.17288 4.75277C6.19913 4.81401 6.17288 4.85557 6.10398 4.85557L5.12522 4.85557C5.06944 4.85557 5.0432 4.83479 5.02132 4.78667L4.53686 3.73135C4.35204 3.33547 4.20113 2.84226 3.76916 2.84226L3.63793 2.84226L3.63793 4.76698C3.63793 4.82057 3.60402 4.85557 3.54934 4.85557L2.62526 4.85557C2.57058 4.85557 2.53667 4.82057 2.53667 4.76698L2.53667 2.84226L2.40654 2.84226C1.98222 2.84226 1.82474 3.33547 1.64649 3.73135L1.15984 4.78667C1.13906 4.83479 1.11172 4.85557 1.05704 4.85557L0.0793639 4.85557C0.0104673 4.85557 -0.0168726 4.81401 0.0104673 4.75277L0.763955 3.09488C0.906123 2.7657 1.0986 2.54042 1.37965 2.39716C1.41355 2.38295 1.41355 2.32827 1.37965 2.31405C1.0986 2.19813 0.948773 2.05487 0.790201 1.6907L0.0728023 0.102798C0.0443688 0.0404631 0.0728023 0 0.140605 0L1.11937 0C1.17405 0 1.20139 0.0207783 1.22217 0.0688966L1.66727 1.06188C1.81709 1.40308 2.00191 1.87661 2.40654 1.87661L2.53667 1.87661L2.53667 0.0885813C2.53667 0.0339015 2.57058 0 2.62526 0L3.54934 0C3.60402 0 3.63793 0.0339015 3.63793 0.0885813L3.63793 1.87661L3.76916 1.87661C4.18035 1.87661 4.3586 1.40308 4.51499 1.06188L4.95352 0.0688966C4.9743 0.0207783 5.00164 0 5.05523 0L6.04274 0C6.11055 0 6.13898 0.0404631 6.11055 0.102798L5.39205 1.6907Z" transform="translate(131.697 19.63016)" id="Fill-95" fill="#FFFFFF" stroke="none" />
    <path d="M2.78648 1.87661C2.84226 1.87661 2.87616 1.91051 2.87616 1.96629L2.87616 2.75258C2.87616 2.80835 2.84226 2.84226 2.78648 2.84226L1.10891 2.84226L1.10891 3.88992L3.34859 3.88992C3.40218 3.88992 3.43717 3.92382 3.43717 3.9785L3.43717 4.76698C3.43717 4.82057 3.40218 4.85557 3.34859 4.85557L0.0896749 4.85557C0.0339015 4.85557 0 4.82057 0 4.76698L0 0.0885813C0 0.0339015 0.0339015 0 0.0896749 0L3.38249 0C3.44483 0 3.47107 0.0404631 3.45795 0.102798L3.23923 0.896749C3.22501 0.944867 3.19111 0.973301 3.143 0.973301L1.10891 0.973301L1.10891 1.87661L2.78648 1.87661C2.84226 1.87661 2.87616 1.91051 2.87616 1.96629L2.87616 2.75258C2.87616 2.80835 2.84226 2.84226 2.78648 2.84226L1.10891 2.84226L1.10891 3.88992L3.34859 3.88992C3.40218 3.88992 3.43717 3.92382 3.43717 3.9785L3.43717 4.76698C3.43717 4.82057 3.40218 4.85557 3.34859 4.85557L0.0896749 4.85557C0.0339015 4.85557 0 4.82057 0 4.76698L0 0.0885813C0 0.0339015 0.0339015 0 0.0896749 0L3.38249 0C3.44483 0 3.47107 0.0404631 3.45795 0.102798L3.23923 0.896749C3.22501 0.944867 3.19111 0.973301 3.143 0.973301L1.10891 0.973301L1.10891 1.87661L2.78648 1.87661Z" transform="translate(139.8346 19.63005)" id="Fill-97" fill="#FFFFFF" stroke="none" />
    <path d="M2.97896 4.85447C2.92428 4.85447 2.89037 4.82057 2.89037 4.76589L2.89037 2.84116L1.10891 2.84116L1.10891 4.76589C1.10891 4.82057 1.075 4.85447 1.02033 4.85447L0.0896749 4.85447C0.0349951 4.85447 0 4.82057 0 4.76589L0 0.0885813C0 0.0339015 0.0349951 0 0.0896749 0L1.02033 0C1.075 0 1.10891 0.0339015 1.10891 0.0885813L1.10891 1.87552L2.89037 1.87552L2.89037 0.0885813C2.89037 0.0339015 2.92428 0 2.97896 0L3.90304 0C3.95772 0 3.99163 0.0339015 3.99163 0.0885813L3.99163 4.76589C3.99163 4.82057 3.95772 4.85447 3.90304 4.85447L2.97896 4.85447C2.92428 4.85447 2.89037 4.82057 2.89037 4.76589L2.89037 2.84116L1.10891 2.84116L1.10891 4.76589C1.10891 4.82057 1.075 4.85447 1.02033 4.85447L0.0896749 4.85447C0.0349951 4.85447 0 4.82057 0 4.76589L0 0.0885813C0 0.0339015 0.0349951 0 0.0896749 0L1.02033 0C1.075 0 1.10891 0.0339015 1.10891 0.0885813L1.10891 1.87552L2.89037 1.87552L2.89037 0.0885813C2.89037 0.0339015 2.92428 0 2.97896 0L3.90304 0C3.95772 0 3.99163 0.0339015 3.99163 0.0885813L3.99163 4.76589C3.99163 4.82057 3.95772 4.85447 3.90304 4.85447L2.97896 4.85447Z" transform="translate(145.2639 19.63081)" id="Fill-99" fill="#FFFFFF" stroke="none" />
    <path d="M4.12286 4.76589C4.12286 4.82057 4.08896 4.85447 4.03428 4.85447L3.10909 4.85447C3.05441 4.85447 3.02051 4.82057 3.02051 4.76589L3.02051 2.83351C3.02051 2.34139 3.02707 2.02643 3.09597 1.60102C3.10909 1.50588 3.03364 1.46433 2.98661 1.57368C2.89694 1.73772 2.82257 1.8963 2.73946 2.07455L1.76069 4.05943C1.65024 4.2858 1.52119 4.54608 1.41183 4.78667C1.39105 4.83369 1.36371 4.85447 1.30903 4.85447L0.0896749 4.85447C0.0349951 4.85447 0 4.82057 0 4.76589L0 0.0885813C0 0.0339015 0.0349951 0 0.0896749 0L1.02142 0C1.0761 0 1.11 0.0339015 1.11 0.0885813L1.11 2.00675C1.11 2.49887 1.09578 2.82038 1.03564 3.25126C1.02798 3.34094 1.09578 3.38249 1.15156 3.27969C1.23358 3.10144 1.30903 2.94396 1.39762 2.7657L2.36982 0.793951C2.47918 0.567576 2.60932 0.307301 2.71212 0.067803C2.7329 0.0196847 2.76024 0 2.81492 0L4.03428 0C4.08896 0 4.12286 0.0339015 4.12286 0.0885813L4.12286 4.76589C4.12286 4.82057 4.08896 4.85447 4.03428 4.85447L3.10909 4.85447C3.05441 4.85447 3.02051 4.82057 3.02051 4.76589L3.02051 2.83351C3.02051 2.34139 3.02707 2.02643 3.09597 1.60102C3.10909 1.50588 3.03364 1.46433 2.98661 1.57368C2.89694 1.73772 2.82257 1.8963 2.73946 2.07455L1.76069 4.05943C1.65024 4.2858 1.52119 4.54608 1.41183 4.78667C1.39105 4.83369 1.36371 4.85447 1.30903 4.85447L0.0896749 4.85447C0.0349951 4.85447 0 4.82057 0 4.76589L0 0.0885813C0 0.0339015 0.0349951 0 0.0896749 0L1.02142 0C1.0761 0 1.11 0.0339015 1.11 0.0885813L1.11 2.00675C1.11 2.49887 1.09578 2.82038 1.03564 3.25126C1.02798 3.34094 1.09578 3.38249 1.15156 3.27969C1.23358 3.10144 1.30903 2.94396 1.39762 2.7657L2.36982 0.793951C2.47918 0.567576 2.60932 0.307301 2.71212 0.067803C2.7329 0.0196847 2.76024 0 2.81492 0L4.03428 0C4.08896 0 4.12286 0.0339015 4.12286 0.0885813L4.12286 4.76589Z" transform="translate(151.3843 19.63071)" id="Fill-101" fill="#FFFFFF" stroke="none" />
    <path d="M2.10189 1.0411C2.84226 1.0411 3.18346 0.767704 3.18346 0.170601L3.18346 0.0885813C3.18346 0.0339015 3.14956 0 3.09488 0L2.43763 0C2.38295 0 2.34795 0.0339015 2.34795 0.0885813L2.34795 0.130138C2.34795 0.273399 2.28015 0.376197 2.10189 0.376197C1.92473 0.376197 1.85474 0.273399 1.85474 0.130138L1.85474 0.0885813C1.85474 0.0339015 1.82084 0 1.76616 0L1.11547 0C1.06188 0 1.02579 0.0339015 1.02579 0.0885813L1.02579 0.170601C1.02579 0.767704 1.36262 1.0411 2.10189 1.0411ZM3.02051 6.24553C3.02051 6.29911 3.05441 6.33411 3.10909 6.33411L4.03318 6.33411C4.08786 6.33411 4.12176 6.29911 4.12176 6.24553L4.12176 1.56712C4.12176 1.51354 4.08786 1.47854 4.03318 1.47854L2.81382 1.47854C2.75914 1.47854 2.7318 1.49932 2.71102 1.54744C2.60932 1.78694 2.47809 2.04721 2.36873 2.27359L1.39652 4.24534C1.30794 4.4236 1.23358 4.57998 1.15156 4.75824C1.09578 4.86213 1.02579 4.82057 1.03345 4.7309C1.09578 4.29893 1.11 3.97741 1.11 3.48529L1.11 1.56712C1.11 1.51354 1.07501 1.47854 1.01923 1.47854L0.0896749 1.47854C0.0339015 1.47854 0 1.51354 0 1.56712L0 6.24553C0 6.29911 0.0339015 6.33411 0.0896749 6.33411L1.30794 6.33411C1.36262 6.33411 1.38996 6.31333 1.41074 6.26521C1.5201 6.02571 1.65024 5.76434 1.7596 5.53906L2.73946 3.55419C2.82148 3.37593 2.89584 3.21736 2.98552 3.05332C3.03254 2.94396 3.10909 2.98442 3.09488 3.08066C3.02598 3.50607 3.02051 3.82102 3.02051 4.31314L3.02051 6.24553Z" transform="translate(157.6294 18.1514)" id="Fill-103" fill="#FFFFFF" fill-rule="evenodd" stroke="none" />
    <path d="M3.24689 4.84244C2.87616 4.96493 2.5951 5.00539 2.22 5.00539C0.843163 5.00539 0 4.04084 0 2.49996C0 0.966739 0.843163 0 2.22 0C2.60932 0 2.89694 0.0349951 3.23923 0.144355L3.55419 0.247153C3.60887 0.266837 3.63074 0.301833 3.60887 0.356512L3.36281 1.13078C3.34312 1.18546 3.30813 1.20624 3.25345 1.18546L2.93084 1.08266C2.7318 1.02142 2.53496 0.992985 2.22 0.992985C1.53432 0.992985 1.11766 1.54744 1.11766 2.49996C1.11766 3.46561 1.53432 4.02006 2.22 4.02006C2.47262 4.02006 2.67712 3.99928 2.92428 3.91726L3.24689 3.82102C3.30157 3.80134 3.34312 3.82102 3.35625 3.8757L3.63074 4.62263C3.65042 4.67731 3.63621 4.71231 3.57497 4.73199L3.24689 4.84244C2.87616 4.96493 2.5951 5.00539 2.22 5.00539C0.843163 5.00539 0 4.04084 0 2.49996C0 0.966739 0.843163 0 2.22 0C2.60932 0 2.89694 0.0349951 3.23923 0.144355L3.55419 0.247153C3.60887 0.266837 3.63074 0.301833 3.60887 0.356512L3.36281 1.13078C3.34312 1.18546 3.30813 1.20624 3.25345 1.18546L2.93084 1.08266C2.7318 1.02142 2.53496 0.992985 2.22 0.992985C1.53432 0.992985 1.11766 1.54744 1.11766 2.49996C1.11766 3.46561 1.53432 4.02006 2.22 4.02006C2.47262 4.02006 2.67712 3.99928 2.92428 3.91726L3.24689 3.82102C3.30157 3.80134 3.34312 3.82102 3.35625 3.8757L3.63074 4.62263C3.65042 4.67731 3.63621 4.71231 3.57497 4.73199L3.24689 4.84244Z" transform="translate(166.3383 19.55415)" id="Fill-105" fill="#FFFFFF" stroke="none" />
    <path d="M0.527113 0.192473C0.951429 0.0557734 1.30794 0 1.66336 0C2.69681 0 3.32125 0.528207 3.32125 1.42496C3.32125 1.93895 3.05332 2.2878 2.48465 2.64322L1.4512 3.28079C1.21827 3.42514 1.09578 3.71276 1.09578 3.98616L3.14846 3.98616C3.20424 3.98616 3.23814 4.02006 3.23814 4.07474L3.23814 4.84244C3.23814 4.89712 3.20424 4.93102 3.14846 4.93102L0.0885813 4.93102C0.0339015 4.93102 0 4.89712 0 4.84244L0 4.4236C0 3.45904 0.308394 2.82804 0.951429 2.43216L1.95863 1.80115C2.14345 1.69179 2.22547 1.56931 2.22547 1.42496C2.22547 1.13734 2.01987 0.966739 1.66336 0.966739C1.38231 0.966739 1.11547 1.01486 0.84863 1.10344L0.396975 1.2467C0.341202 1.26748 0.308394 1.2467 0.286522 1.19202L0.0339015 0.445094C0.0131232 0.391507 0.0339015 0.356512 0.0885813 0.335734L0.527113 0.192473C0.951429 0.0557734 1.30794 0 1.66336 0C2.69681 0 3.32125 0.528207 3.32125 1.42496C3.32125 1.93895 3.05332 2.2878 2.48465 2.64322L1.4512 3.28079C1.21827 3.42514 1.09578 3.71276 1.09578 3.98616L3.14846 3.98616C3.20424 3.98616 3.23814 4.02006 3.23814 4.07474L3.23814 4.84244C3.23814 4.89712 3.20424 4.93102 3.14846 4.93102L0.0885813 4.93102C0.0339015 4.93102 0 4.89712 0 4.84244L0 4.4236C0 3.45904 0.308394 2.82804 0.951429 2.43216L1.95863 1.80115C2.14345 1.69179 2.22547 1.56931 2.22547 1.42496C2.22547 1.13734 2.01987 0.966739 1.66336 0.966739C1.38231 0.966739 1.11547 1.01486 0.84863 1.10344L0.396975 1.2467C0.341202 1.26748 0.308394 1.2467 0.286522 1.19202L0.0339015 0.445094C0.0131232 0.391507 0.0339015 0.356512 0.0885813 0.335734L0.527113 0.192473Z" transform="translate(174.5485 19.55415)" id="Fill-107" fill="#FFFFFF" stroke="none" />
    <path d="M1.92473 5.00539C3.11566 5.00539 3.84946 4.0474 3.84946 2.50652C3.84946 0.966739 3.11566 0 1.92473 0C0.733803 0 0 0.966739 0 2.50652C0 4.0474 0.733803 5.00539 1.92473 5.00539ZM1.92473 4.0474C1.40418 4.0474 1.09578 3.47217 1.09578 2.50652C1.09578 1.54088 1.40418 0.966739 1.92473 0.966739C2.45184 0.966739 2.75367 1.54088 2.75367 2.50652C2.75367 3.47217 2.45184 4.0474 1.92473 4.0474Z" transform="translate(179.7927 19.55447)" id="Fill-109" fill="#FFFFFF" fill-rule="evenodd" stroke="none" />
    <path d="M1.92473 5.00539C3.11675 5.00539 3.84946 4.0474 3.84946 2.50652C3.84946 0.966739 3.11675 0 1.92473 0C0.733803 0 0 0.966739 0 2.50652C0 4.0474 0.733803 5.00539 1.92473 5.00539ZM1.92473 4.0474C1.40418 4.0474 1.09578 3.47217 1.09578 2.50652C1.09578 1.54088 1.40418 0.966739 1.92473 0.966739C2.45184 0.966739 2.75367 1.54088 2.75367 2.50652C2.75367 3.47217 2.45184 4.0474 1.92473 4.0474Z" transform="translate(185.4955 19.55447)" id="Fill-111" fill="#FFFFFF" fill-rule="evenodd" stroke="none" />
    <path d="M0.52602 0.192473C0.950335 0.0557734 1.30685 0 1.66336 0C2.69681 0 3.32016 0.528207 3.32016 1.42496C3.32016 1.93895 3.05332 2.2878 2.48356 2.64322L1.4512 3.28079C1.21717 3.42514 1.09469 3.71276 1.09469 3.98616L3.14846 3.98616C3.20314 3.98616 3.23704 4.02006 3.23704 4.07474L3.23704 4.84244C3.23704 4.89712 3.20314 4.93102 3.14846 4.93102L0.0885813 4.93102C0.0339015 4.93102 0 4.89712 0 4.84244L0 4.4236C0 3.45904 0.3073 2.82804 0.950335 2.43216L1.95754 1.80115C2.14235 1.69179 2.22437 1.56931 2.22437 1.42496C2.22437 1.13734 2.01878 0.966739 1.66336 0.966739C1.38231 0.966739 1.11437 1.01486 0.847537 1.10344L0.396975 1.2467C0.341202 1.26748 0.3073 1.2467 0.286522 1.19202L0.0339015 0.445094C0.0131232 0.391507 0.0339015 0.356512 0.0885813 0.335734L0.52602 0.192473C0.950335 0.0557734 1.30685 0 1.66336 0C2.69681 0 3.32016 0.528207 3.32016 1.42496C3.32016 1.93895 3.05332 2.2878 2.48356 2.64322L1.4512 3.28079C1.21717 3.42514 1.09469 3.71276 1.09469 3.98616L3.14846 3.98616C3.20314 3.98616 3.23704 4.02006 3.23704 4.07474L3.23704 4.84244C3.23704 4.89712 3.20314 4.93102 3.14846 4.93102L0.0885813 4.93102C0.0339015 4.93102 0 4.89712 0 4.84244L0 4.4236C0 3.45904 0.3073 2.82804 0.950335 2.43216L1.95754 1.80115C2.14235 1.69179 2.22437 1.56931 2.22437 1.42496C2.22437 1.13734 2.01878 0.966739 1.66336 0.966739C1.38231 0.966739 1.11437 1.01486 0.847537 1.10344L0.396975 1.2467C0.341202 1.26748 0.3073 1.2467 0.286522 1.19202L0.0339015 0.445094C0.0131232 0.391507 0.0339015 0.356512 0.0885813 0.335734L0.52602 0.192473Z" transform="translate(191.1937 19.55415)" id="Fill-113" fill="#FFFFFF" stroke="none" />
    <path d="M3.08066 0.896749C3.06644 0.944867 3.03254 0.972207 2.98552 0.972207L1.10781 0.972207L1.10781 4.76589C1.10781 4.82057 1.07391 4.85447 1.01923 4.85447L0.0885813 4.85447C0.0339015 4.85447 0 4.82057 0 4.76589L0 0.0885813C0 0.0339015 0.0339015 0 0.0885813 0L3.22501 0C3.28516 0 3.3136 0.0404631 3.29938 0.101704L3.08066 0.896749C3.06644 0.944867 3.03254 0.972207 2.98552 0.972207L1.10781 0.972207L1.10781 4.76589C1.10781 4.82057 1.07391 4.85447 1.01923 4.85447L0.0885813 4.85447C0.0339015 4.85447 0 4.82057 0 4.76589L0 0.0885813C0 0.0339015 0.0339015 0 0.0885813 0L3.22501 0C3.28516 0 3.3136 0.0404631 3.29938 0.101704L3.08066 0.896749Z" transform="translate(199.1766 19.6306)" id="Fill-115" fill="#FFFFFF" stroke="none" />
    <path d="M2.1861 5.00539C3.5345 5.00539 4.36235 4.03318 4.36235 2.49996C4.36235 0.959084 3.5345 0 2.1861 0C0.828946 0 0 0.959084 0 2.49996C0 4.03318 0.828946 5.00539 2.1861 5.00539ZM2.1861 4.02006C1.5201 4.02006 1.11656 3.43717 1.11656 2.49996C1.11656 1.54088 1.5201 0.992985 2.1861 0.992985C2.84882 0.992985 3.24689 1.54088 3.24689 2.49996C3.24689 3.43717 2.84882 4.02006 2.1861 4.02006Z" transform="translate(204.1118 19.5546)" id="Fill-117" fill="#FFFFFF" fill-rule="evenodd" stroke="none" />
    <g id="Group-121" transform="translate(209.9705 19.22411)">
      <path d="M0 0L5.09397 0L5.09397 6.15574L0 6.15574L0 0L5.09397 0L5.09397 6.15574L0 6.15574L0 0Z" transform="translate(0.1190926 0.4058335)" id="Clip-120" fill="none" stroke="none" />
      <g clip-path="url(#mask_3)">
        <path d="M5.09397 3.9785C5.09397 3.92382 5.06007 3.88992 5.00539 3.88992L4.48593 3.88992L4.48593 0.0885813C4.48593 0.0349951 4.45203 0 4.39735 0L1.09578 0C1.0411 0 1.0072 0.0349951 1.0072 0.0885813L1.0072 2.33592C1.0072 2.71868 0.9733 2.98552 0.856286 3.20533L0.481182 3.88992L0.0896749 3.88992C0.0360887 3.88992 0 3.92382 0 3.9785L0 6.06727C0 6.12195 0.0360887 6.15585 0.0896749 6.15585L0.945961 6.15585C0.999547 6.15585 1.03564 6.12195 1.03564 6.06727L1.03564 4.85557L4.06052 4.85557L4.06052 6.06727C4.06052 6.12195 4.09552 6.15585 4.1502 6.15585L5.00539 6.15585C5.06007 6.15585 5.09397 6.12195 5.09397 6.06727L5.09397 3.9785ZM1.81537 3.65699C2.00675 3.30813 2.10955 2.9035 2.10955 2.33592L2.10955 0.973301L3.38359 0.973301L3.38359 3.88992L1.69289 3.88992L1.81537 3.65699Z" transform="translate(0.1190926 0.4058335)" id="Fill-119" fill="#FFFFFF" fill-rule="evenodd" stroke="none" />
      </g>
    </g>
    <g id="Group-124" transform="translate(216.532 19.22411)">
      <path d="M0 0L4.72391 0L4.72391 4.85557L0 4.85557L0 0L4.72391 0L4.72391 4.85557L0 4.85557L0 0Z" transform="translate(0.3645883 0.4059429)" id="Clip-123" fill="none" stroke="none" />
      <g clip-path="url(#mask_4)">
        <path d="M1.04681 4.85557C1.09492 4.85557 1.12883 4.83479 1.1496 4.78667L1.3552 4.21144L3.36851 4.21144L3.57411 4.78667C3.59379 4.83479 3.62879 4.85557 3.67581 4.85557L4.64146 4.85557C4.71035 4.85557 4.73769 4.8151 4.71801 4.75277L3.75127 2.13689C3.49756 1.43808 3.27227 0.766611 3.10167 0.0754581C3.08746 0.0284335 3.05356 0 2.99888 0L1.72484 0C1.67016 0 1.63626 0.0284335 1.62313 0.0754581C1.45144 0.766611 1.22506 1.43808 0.971349 2.13689L0.00679689 4.75277C-0.0139814 4.8151 0.0133585 4.85557 0.082255 4.85557L1.04681 4.85557ZM2.42364 1.34294C2.50457 1.78694 2.72438 2.43106 2.92342 2.9713L3.01965 3.24579L1.70515 3.24579L1.80139 2.9713C1.99824 2.4245 2.21149 1.78694 2.30007 1.34294C2.32085 1.26092 2.40177 1.26092 2.42364 1.34294Z" transform="translate(0.3645883 0.4059429)" id="Fill-122" fill="#FFFFFF" fill-rule="evenodd" stroke="none" />
      </g>
    </g>
  </g>
</svg>